<svg aria-hidden="true" xmlns="http://www.w3.org/2000/svg" width="878" height="1152" viewBox="0 0 1756 2304"><path fill="#BFE144" d="M814.9 98.83q7 1.6 13.99 3.16c42.5 9.54 84.69 20.64 126.8 31.82 11.3 2.99 22.64 5.89 33.96 8.79q37.11 9.52 74.16 19.21l4.55 1.19 22.54 5.89 17.76 4.63q30 7.8 59.9 15.93a4729 4729 0 0 0 26.03 6.97l10.66 2.83c30.94 8.24 30.94 8.24 37.3 19.13 2.39 7.65 2.35 13.57-1.55 20.62-9.26 14.21-25.97 22.39-39.87 31.5l-4.9 3.22a1108 1108 0 0 1-41 25.74q-7.82 4.7-15.6 9.48-12.37 7.54-24.9 14.85a423 423 0 0 0-9.73 5.96c-7.48 4.65-15.2 8.88-22.9 13.15-18.76 10.42-18.76 10.42-20.1 13.1q2.08 4 4.38 7.88a272 272 0 0 1 12.54 25.46 219 219 0 0 0 5.58 11.54 249 249 0 0 1 8.44 18.87l1.22 2.96c2.84 7.03 2.84 7.03 2.84 9.29l5 1a200 200 0 0 1 41.28 23.98 212 212 0 0 0 10.1 6.9A299 299 0 0 1 1174 479a339 339 0 0 0 16.06 11.94A98 98 0 0 1 1205 504q3.98 3.52 8 7l10 9 2.19 1.94a416 416 0 0 1 18 17.12l2.58 2.57A292 292 0 0 1 1260 557l3.88 3.81c3.94 4.01 7.44 8.15 10.96 12.52 3.99 4.93 8.24 9.64 12.47 14.36 7.2 8.43 13.77 17.39 20.4 26.27a883 883 0 0 0 7.42 9.67 310 310 0 0 1 16.94 24.35q3.27 5.09 6.68 10.08a554 554 0 0 1 13.73 21.8q2.97 4.89 6.08 9.7c4.7 7.35 9.06 14.9 13.44 22.44l1.89 3.22c9.83 16.92 19.22 34.22 27.37 52.01q2.65 5.72 5.49 11.33l2 3.98q2.5 4.95 5.04 9.89a531 531 0 0 1 17.4 37.88 830 830 0 0 0 10.67 24.27 340 340 0 0 1 7.97 19.48c1.5 3.76 3.34 7.32 5.17 10.94q1.73 4.49 3.3 9a222 222 0 0 0 6.95 17.25c5.28 11.78 9.26 24.09 13.52 36.26a368 368 0 0 0 8.36 22.13 253 253 0 0 1 8.06 21.99 700 700 0 0 0 13.7 37.57 414 414 0 0 1 10.69 30.25 1150 1150 0 0 0 5.48 16.93l1 3.02c2.1 6.3 4.47 12.44 6.94 18.6q1.55 4.49 3 9c3.25 9.89 6.5 19.76 10.19 29.5 4.19 11.19 7.75 22.57 11.4 33.95a566 566 0 0 0 9.77 28.02c2.45 6.75 4.56 13.6 6.72 20.44A434 434 0 0 0 1585 1249a719 719 0 0 1 2 8c3.97 13.37 8.52 26.56 12.96 39.78a792 792 0 0 1 8.78 28.06c1.5 4.97 3.26 9.81 5.05 14.68 1.86 5.35 3.4 10.79 4.97 16.23q1.7 5.81 3.55 11.56c2.68 8.5 5.1 17.06 7.53 25.62q3.6 12.65 7.35 25.26l1.02 3.44q2.03 6.92 4.19 13.78c3.64 11.6 5.88 23.43 8.17 35.36a432 432 0 0 0 3.78 17.42c.99 4.25 1.8 8.53 2.65 12.81l.69 2.99c2.07 9.15 3.42 18.33 4.66 27.62.65 4.39.65 4.39 1.65 7.39.3 3.58.5 7.16.72 10.75.28 3.25.28 3.25 1.28 6.25q.3 4.96.5 9.94c.39 9.62.39 9.62 1.5 14.06q.13 3.37.13 6.74v59.31c-.13 2.95-.13 2.95-1.13 5.95q-.3 4.25-.5 8.5c-.4 8.17-.4 8.17-1.5 11.5l-.37 4.88a81 81 0 0 1-2 12.24 639 639 0 0 0-2.95 12.96A404 404 0 0 1 1647 1747l-1.1 3.22c-7.05 20.7-16.11 39.73-26.9 58.78l-3.2 5.94a158 158 0 0 1-14.72 22.42c-3.71 4.72-7.25 9.56-10.82 14.38-8.37 10.94-17.42 20.73-27.2 30.45l-3.95 3.98c-8.54 8.52-17.06 16.13-27.11 22.83l-4.37 3.56c-25.42 20.46-54.88 35.39-84.63 48.44l-4.66 2.05c-23.4 10.08-47.24 18-71.74 24.93q-4.26 1.21-8.5 2.48c-22.07 6.48-44.9 10.92-67.51 15.08-7.4 1.37-7.4 1.37-9.6 2.46q-4.51.73-9.05 1.38a488 488 0 0 0-19.01 3.09 376 376 0 0 1-26.74 3.59c-16.67 1.8-16.67 1.8-23.4 2.96a310 310 0 0 1-19.66 2.54l-7.06.76-3.1.32q-4.5.57-8.97 1.36c3.05 4.19 6.15 8.16 9.63 12 24.05 26.77 43.26 60.83 38.9 97.93-4.3 25.95-18.21 46.55-40.95 60.15-19.57 10.48-39.76 15.84-61.58 18.92l-3.71.54c-8.68.94-17.44.71-26.16.71h-3.14c-15.86-.01-31.33-.6-47-3.25l-3.08-.52c-47.76-8.22-103-26.18-129.91-69.48-19.9-34.22-9.76-69.88 2-105-6.13-1.08-12.17-1.15-18.37-1.12l-5.96-.01c-4.78.05-9.52.3-14.3.63-10.85.68-21.71.65-32.6.63l-10.67.01-6.83-.01-3.21.01A66 66 0 0 1 794 2035a48 48 0 0 0-12 1 214 214 0 0 0 3 24l.58 3.26c1.42 9.33 1.63 18.57 1.67 27.99l.03 3.84c-.08 23.49-7.63 45.21-23.28 62.91l-2.12 2.48c-37.11 42.6-99.18 55.67-153.27 55.76q-5.06.02-10.12.07c-37.75.19-80.02-7.36-108.32-34.28-2.17-2.03-2.17-2.03-5.73-4.72-15.02-14.47-21.51-35.88-20.44-56.31 1.9-25 13.97-46.5 29-66 7-9.47 7-9.47 7-13-4-1.99-8.97-1.67-13.4-2.02l-7.16-.59-3.81-.32c-20.31-1.69-40.46-3.51-60.5-7.46q-4.8-.92-9.64-1.75c-37.98-6.74-75.67-18.21-110.5-34.86l-5.2-2.45c-38.12-18.52-71.43-44.03-101.35-73.92l-2.67-2.64A219 219 0 0 1 169 1897l-3.44-4.19c-58-70.85-91.42-158.21-74.78-250.3 8.1-42.26 23.04-82.43 40.17-121.75q3.17-7.36 6.25-14.77 4.25-10.12 8.93-20.05c7.16-15.42 13.5-31.18 19.87-46.94l1.3-3.2c20.08-49.26 35.89-101.33 41.35-154.38q.61-5.88 1.27-11.74c3.79-35.1 5.93-70.34 8.05-105.57 3.84-63.61 10.1-126.44 22.03-189.11l.75-4c6.57-34.76 17.65-68.64 29.25-102l1.24-3.57a560 560 0 0 1 14.75-38.38c2.12-5.08 3.12-7.52 2-13.05-2.93-1.69-2.93-1.69-6-3l-2-2a213 213 0 0 0-9.05-1.37c-11.01-1.65-19.95-4.65-27.94-12.63l-3.44-1.12c-15.4-6.34-27.45-19.61-33.56-34.88l-1-5-2.7-2.06c-9.67-8.59-11.86-22.65-13.3-34.94 1.67-23.94 12.87-38.21 30.63-53.11 2.89-2.47 5.59-5 8.25-7.7 3.89-3.95 7.94-7.55 12.12-11.19l3.5-3.5c3.5-3.5 3.5-3.5 7.22-6.7 4.33-3.85 8.27-7.88 12.22-12.11l2.1-2.27a818 818 0 0 0 18.34-20.29c25.04-28.5 25.04-28.5 37.12-36.07 3.2-2.11 3.2-2.11 5.5-4.06.3-3.62.3-3.62-1-8-1.08-14.52 1.57-25.43 12-36 10.05-7.86 19.55-10.37 32-10.92l3-1.08c.64-3.18.64-3.18 1-8 1.35-4.86 3-9.61 4.63-14.37l1.36-4.05a580 580 0 0 1 12.29-32.71A62 62 0 0 0 395 433l-3.34-.15-4.6-.22-4.46-.22c-115.05-8.51-115.05-8.51-134.47-28.35-3.85-5.55-4.82-10.33-4.13-17.06 5.59-14.83 18.1-22.81 31-31l9-6 4.58-3.05 8.44-5.65a529 529 0 0 1 20.36-13.05c4.48-2.78 8.89-5.67 13.3-8.56a796 796 0 0 1 23.69-14.87q7.62-4.66 15.19-9.38a778 778 0 0 1 19.38-11.69 444 444 0 0 0 18.48-11.47c5.34-3.4 10.83-6.56 16.3-9.75a675 675 0 0 0 16.18-9.96 858 858 0 0 1 32.72-19.64c11.34-6.47 22.4-13.41 33.47-20.35a1304 1304 0 0 1 35.97-21.83 2541 2541 0 0 0 30.62-18.17q5.91-3.52 11.88-6.89c3.95-2.24 7.82-4.53 11.63-7 6.58-4.26 13.39-8.1 20.18-12a378 378 0 0 0 11.07-6.69c7.09-4.42 14.45-8.35 21.78-12.35a247 247 0 0 0 11.22-6.59c54.36-33.96 92.3-36.59 154.47-22.23M428.6 439.75c-2.31 4.7-4.5 9.42-6.54 14.25l-1.34 3.14a436 436 0 0 0-13.22 35.33q-1.47 4.46-3.06 8.87l-1.44 4.04-1.31 3.58c-.7 3.04-.7 3.04 1.3 7.04a155 155 0 0 0 4.76 4.5c11.07 10.78 13.2 22.54 12.25 37.5-3.14 10.75-9.26 18.16-18 25l-3.06 1.1c-3.5 1.28-5.53 2.04-7.94 4.9-.11 7.59 1.6 14.82 4 22 .3 3.32.5 6.64.72 9.97C396 624 396 624 397 627c4.65-1.16 5.22-2.07 8.06-5.75q4.98-6.32 10.19-12.44c4.17-4.89 8.22-9.86 12.25-14.87A372 372 0 0 1 445 574l5.75-6.31c5.12-5.58 10.28-10.98 16-15.94 4.35-3.84 8.35-7.9 12.35-12.1 2.9-2.65 2.9-2.65 7.1-4.88 5.1-3.71 5.22-6.24 6.1-12.39l.92-5.74.78-5.64c2.52-18.15 6.04-36.83 12.12-54.18.88-2.82.88-2.82.88-6.82-8.51-2.91-17.33-3.78-26.23-4.87a285 285 0 0 1-17.21-2.63 670 670 0 0 0-21.37-3.5l-3.17-.52c-7.3-1.01-7.3-1.01-10.41 1.27"/><path fill="#87A628" d="M814.9 98.83q7 1.6 13.99 3.16c42.5 9.54 84.69 20.64 126.8 31.82 11.3 2.99 22.64 5.89 33.96 8.79q37.11 9.52 74.16 19.21l4.55 1.19 22.54 5.89 17.76 4.63q30 7.8 59.9 15.93a4729 4729 0 0 0 26.03 6.97l10.66 2.83c30.94 8.24 30.94 8.24 37.3 19.13 2.39 7.65 2.35 13.57-1.55 20.62-9.26 14.21-25.97 22.39-39.87 31.5l-4.9 3.22a1108 1108 0 0 1-41 25.74q-7.82 4.7-15.6 9.48-12.37 7.54-24.9 14.85a423 423 0 0 0-9.73 5.96c-7.48 4.65-15.2 8.88-22.9 13.15-18.76 10.42-18.76 10.42-20.1 13.1q2.08 4 4.38 7.88a274 274 0 0 1 12.55 25.48c1.7 3.81 3.5 7.5 5.45 11.2 28.26 55.81 28.26 55.81 22.68 77-5.01 8.37-10.96 11.82-20.06 14.44-4 .51-7.9.92-11.9 1.21l-3.46.28-7.33.59q-9.72.77-19.43 1.61l-3.91.34c-17.4 1.5-34.68 3.63-51.97 5.97l-6.4.86A1739 1739 0 0 0 884 519l-9.75 1.84C808.92 533.26 743.67 548.7 680 568l-3.12.95q-9.48 2.87-18.92 5.83l-14.21 4.36-11.12 3.42-5.26 1.61A868 868 0 0 0 592 596l-8.25 2.88a1196 1196 0 0 0-24.9 9.14c-9.68 3.64-9.68 3.64-11.6 7.58-2.31 4.52-4.91 7.91-8.2 11.78-7.1 8.58-13.6 17.52-20.05 26.62l-3.03 4.22a723 723 0 0 0-20.3 30.18l-5 7.74c-21.42 33.13-42.63 68.2-57.41 104.85-1.38 3.31-2.9 6.53-4.45 9.76C374.2 927.34 363.33 1062.48 382 1189c.29 4.35.5 8.69.72 13.04.28 3.96.28 3.96 1.28 8.96q.32 3.16.56 6.33l.29 3.81.3 4.12.33 4.28.68 8.99 1.03 13.58c1.7 22.53 3.02 44.92 3 67.52v3.24a685 685 0 0 1-10.2 118.13l-.95 5.58-1.97 11.31-.52 2.98-1.15 6.52A942 942 0 0 0 367 1527l-.65 5.81c-2.32 22.57-2.75 45.52-2.35 68.19l.06 3.46c1.32 75.98 20.08 149.51 61.94 213.54l2.38 3.68A642 642 0 0 0 459 1864l2.64 3.45a265 265 0 0 0 17.44 20.42c3.39 3.64 6.65 7.39 9.92 11.13q3.7 4.05 7.44 8.06l3.75 4.04a185 185 0 0 0 11.8 10.9q3.34 3.12 6.64 6.25a245 245 0 0 0 18.14 15.27q4.14 3.2 8.17 6.54c6.37 5.11 13.22 9.5 20.06 13.94l2.78 1.81q4.09 2.62 8.22 5.19l4.08 2.59a225 225 0 0 0 26.82 14.53 237 237 0 0 1 11.4 5.69c26.2 13.16 54.69 22.39 83.3 28.46q5.2 1.13 10.4 2.29c19.83 4.36 39.88 7.62 60.16 8.92 5.84.52 5.84.52 9.84 2.52.34 2.88.65 5.77.79 8.66.26 4.11.98 8.1 1.67 12.15l.54 3.19.58 3.26c1.42 9.33 1.63 18.57 1.67 27.99l.03 3.84c-.08 23.49-7.63 45.21-23.28 62.91l-2.12 2.48c-37.11 42.6-99.18 55.67-153.27 55.76q-5.06.02-10.12.07c-37.75.19-80.02-7.36-108.32-34.28-2.17-2.03-2.17-2.03-5.73-4.72-15.02-14.47-21.51-35.88-20.44-56.31 1.9-25 13.97-46.5 29-66 7-9.47 7-9.47 7-13-4-1.99-8.97-1.67-13.4-2.02l-7.16-.59-3.81-.32c-20.31-1.69-40.46-3.51-60.5-7.46q-4.8-.92-9.64-1.75c-37.98-6.74-75.67-18.21-110.5-34.86l-5.2-2.45c-38.12-18.52-71.43-44.03-101.35-73.92l-2.67-2.64A219 219 0 0 1 169 1897l-3.44-4.19c-58-70.85-91.42-158.21-74.78-250.3 8.1-42.26 23.04-82.43 40.17-121.75q3.17-7.36 6.25-14.77 4.25-10.12 8.93-20.05c7.16-15.42 13.5-31.18 19.87-46.94l1.3-3.2c20.08-49.26 35.89-101.33 41.35-154.38q.61-5.88 1.27-11.74c3.79-35.1 5.93-70.34 8.05-105.57 3.84-63.61 10.1-126.44 22.03-189.11l.75-4c6.57-34.76 17.65-68.64 29.25-102l1.24-3.57a560 560 0 0 1 14.75-38.38c2.12-5.08 3.12-7.52 2-13.05-2.93-1.69-2.93-1.69-6-3l-2-2a213 213 0 0 0-9.05-1.37c-11.01-1.65-19.95-4.65-27.94-12.63l-3.44-1.12c-15.4-6.34-27.45-19.61-33.56-34.88l-1-5-2.7-2.06c-9.67-8.59-11.86-22.65-13.3-34.94 1.67-23.94 12.87-38.21 30.63-53.11 2.89-2.47 5.59-5 8.25-7.7 3.89-3.95 7.94-7.55 12.12-11.19l3.5-3.5c3.5-3.5 3.5-3.5 7.22-6.7 4.33-3.85 8.27-7.88 12.22-12.11l2.1-2.27a818 818 0 0 0 18.34-20.29c25.04-28.5 25.04-28.5 37.12-36.07 3.2-2.11 3.2-2.11 5.5-4.06.3-3.62.3-3.62-1-8-1.08-14.52 1.57-25.43 12-36 10.05-7.86 19.55-10.37 32-10.92l3-1.08c.64-3.18.64-3.18 1-8 1.35-4.86 3-9.61 4.63-14.37l1.36-4.05a580 580 0 0 1 12.29-32.71A62 62 0 0 0 395 433l-3.34-.15-4.6-.22-4.46-.22c-115.05-8.51-115.05-8.51-134.47-28.35-3.85-5.55-4.82-10.33-4.13-17.06 5.59-14.83 18.1-22.81 31-31l9-6 4.58-3.05 8.44-5.65a529 529 0 0 1 20.36-13.05c4.48-2.78 8.89-5.67 13.3-8.56a796 796 0 0 1 23.69-14.87q7.62-4.66 15.19-9.38a778 778 0 0 1 19.38-11.69 444 444 0 0 0 18.48-11.47c5.34-3.4 10.83-6.56 16.3-9.75a675 675 0 0 0 16.18-9.96 858 858 0 0 1 32.72-19.64c11.34-6.47 22.4-13.41 33.47-20.35a1304 1304 0 0 1 35.97-21.83 2541 2541 0 0 0 30.62-18.17q5.91-3.52 11.88-6.89c3.95-2.24 7.82-4.53 11.63-7 6.58-4.26 13.39-8.1 20.18-12a378 378 0 0 0 11.07-6.69c7.09-4.42 14.45-8.35 21.78-12.35a247 247 0 0 0 11.22-6.59c54.36-33.96 92.3-36.59 154.47-22.23M428.6 439.75c-2.31 4.7-4.5 9.42-6.54 14.25l-1.34 3.14a436 436 0 0 0-13.22 35.33q-1.47 4.46-3.06 8.87l-1.44 4.04-1.31 3.58c-.7 3.04-.7 3.04 1.3 7.04a155 155 0 0 0 4.76 4.5c11.07 10.78 13.2 22.54 12.25 37.5-3.14 10.75-9.26 18.16-18 25l-3.06 1.1c-3.5 1.28-5.53 2.04-7.94 4.9-.11 7.59 1.6 14.82 4 22 .3 3.32.5 6.64.72 9.97C396 624 396 624 397 627c4.65-1.16 5.22-2.07 8.06-5.75q4.98-6.32 10.19-12.44c4.17-4.89 8.22-9.86 12.25-14.87A372 372 0 0 1 445 574l5.75-6.31c5.12-5.58 10.28-10.98 16-15.94 4.35-3.84 8.35-7.9 12.35-12.1 2.9-2.65 2.9-2.65 7.1-4.88 5.1-3.71 5.22-6.24 6.1-12.39l.92-5.74.78-5.64c2.52-18.15 6.04-36.83 12.12-54.18.88-2.82.88-2.82.88-6.82-8.51-2.91-17.33-3.78-26.23-4.87a285 285 0 0 1-17.21-2.63 670 670 0 0 0-21.37-3.5l-3.17-.52c-7.3-1.01-7.3-1.01-10.41 1.27"/><path fill="#161616" d="M814.9 98.83q7 1.6 13.99 3.16c42.5 9.54 84.69 20.64 126.8 31.82 11.3 2.99 22.64 5.89 33.96 8.79q37.11 9.52 74.16 19.21l4.55 1.19 22.54 5.89 17.76 4.63q30 7.8 59.9 15.93a4729 4729 0 0 0 26.03 6.97l10.66 2.83c30.94 8.24 30.94 8.24 37.3 19.13 2.39 7.65 2.35 13.57-1.55 20.62-9.26 14.21-25.97 22.39-39.87 31.5l-4.9 3.22a1108 1108 0 0 1-41 25.74q-7.82 4.7-15.6 9.48-12.37 7.54-24.9 14.85a423 423 0 0 0-9.73 5.96c-7.48 4.65-15.2 8.88-22.9 13.15-18.76 10.42-18.76 10.42-20.1 13.1q2.08 4 4.38 7.88a274 274 0 0 1 12.55 25.48c1.7 3.81 3.5 7.5 5.45 11.2 28.26 55.81 28.26 55.81 22.68 77-5.01 8.37-10.96 11.82-20.06 14.44-4 .51-7.9.92-11.9 1.21l-3.46.28-7.33.59q-9.72.77-19.43 1.61l-3.91.34c-17.4 1.5-34.68 3.63-51.97 5.97l-6.4.86A1739 1739 0 0 0 884 519l-9.75 1.84C808.92 533.26 743.67 548.7 680 568l-3.12.95q-9.48 2.87-18.92 5.83l-14.21 4.36-11.12 3.42-5.26 1.61A868 868 0 0 0 592 596l-8.25 2.88a745 745 0 0 0-17.11 6.29q-7.8 2.95-15.64 5.83l-3.47 1.28c-29.6 10.82-29.6 10.82-43.03 6.16-11.94-8.32-13.78-17.79-15.2-31.5-.05-.6-.05-.6-.37-3.63a200 200 0 0 1-.14-37.11c.2-3.2.2-3.2.02-8.26.24-7.39 1.67-14.28 3.13-21.51.93-4.75 1.66-9.46 2.3-14.24 2.7-17.63 7.49-35.17 12.76-52.19l-2.94-.41-13.5-1.9-4.62-.65a725 725 0 0 1-27.05-4.37c-7.15-1.23-14.36-1.99-21.58-2.83L433 439c-2.03-6.08 3.93-12.82 7-18 8.06-12.71 17.5-23.32 28-34l2.46-2.64c23.98-25.45 59.25-39.53 90.56-53.57 7.6-3.42 15.16-6.93 22.72-10.42q7.09-3.18 14.27-6.13 7.2-3 14.37-6.05 17.3-7.33 34.62-14.63l4.93-2.08c24.79-10.44 24.79-10.44 30.07-9.48q4.54 2.94 9 6c6.14 2.81 12.25 4.57 19 5l4.06.31c16.69-1.05 31.65-8.07 42.75-20.62 6.97-10.24 9.32-20.43 8.19-32.69a56 56 0 0 0-8-16l-2-4-4-2-2.06-1.81c-10.68-7.96-24.67-10.81-37.74-8.53-17.2 4.18-29.76 11.26-38.2 27.34-1.51 3.67-2.82 7.07-3.57 10.97-2.13 4.51-5.04 5.28-9.55 7.28l-5.16 2.31L649 258l-3.08 1.32q-12.87 5.47-25.84 10.64c-5.93 2.38-11.82 4.86-17.7 7.35l-3.22 1.36a2068 2068 0 0 0-56.75 25.31q-6.08 2.78-12.17 5.53A395 395 0 0 0 489 331l-4.4 2.62c-13.13 8.01-24.74 17.34-36.3 27.5a135 135 0 0 1-5.97 4.95 45 45 0 0 0-6.58 6.99c-4.63 5.8-4.63 5.8-6.91 8.47-9.17 10.79-16.83 22.71-23.78 35.03l-2.22 3.91C401 424 401 424 399.13 429.56 396 433 396 433 392.07 433.38A169 169 0 0 1 377 432l-7.63-.87C257.77 417.97 257.77 417.97 246 401c-3.01-6.61-2.73-12.07-.2-18.81 6.6-11.97 17.98-19.06 29.2-26.19l9-6 4.58-3.05 8.44-5.65a529 529 0 0 1 20.36-13.05c4.48-2.78 8.89-5.67 13.3-8.56a796 796 0 0 1 23.69-14.87q7.62-4.66 15.19-9.38a778 778 0 0 1 19.38-11.69 444 444 0 0 0 18.48-11.47c5.34-3.4 10.83-6.56 16.3-9.75a675 675 0 0 0 16.18-9.96 858 858 0 0 1 32.72-19.64c11.34-6.47 22.4-13.41 33.47-20.35a1304 1304 0 0 1 35.97-21.83 2541 2541 0 0 0 30.62-18.17q5.91-3.52 11.88-6.89c3.95-2.24 7.82-4.53 11.63-7 6.58-4.26 13.39-8.1 20.18-12a378 378 0 0 0 11.07-6.69c7.09-4.42 14.45-8.35 21.78-12.35a247 247 0 0 0 11.22-6.59c54.36-33.96 92.3-36.59 154.47-22.23"/><path fill="#FAFAFA" d="m877 907 3.83 1.78c5.3 2.82 10.17 6.12 15.11 9.53l2.84 1.94c7.88 5.4 15.53 10.88 22.22 17.75l2.81 2.12c5.57 5.02 9.85 11.19 13.19 17.88a86 86 0 0 1-9.94-6c-26.65-17.17-57.06-25.25-88.32-16.26L835 937l-4.12 1.32A101 101 0 0 0 806 951l-2.98 2.02c-29.46 20.97-46.07 51.89-52.02 86.98l-.59 3.39c-4.13 36.38 6.63 71.02 30.36 98.86 23.91 25.12 55.78 37.47 90.23 35.75 34.76-2.79 64.17-20.37 86-47 6.44-9.21 11.84-19.03 17-29l2 1c-1.26 20.28-9.56 42.24-19 60l-1.93 3.65a192 192 0 0 1-13.77 21.17 156 156 0 0 0-5.24 7.8c-9.49 13.56-22.38 25.82-35.06 36.38l-3.08 2.66c-10.23 8.58-21.24 15-32.92 21.34l-4.28 2.44c-41.66 23.23-94.02 31.02-140.72 21.56l-5.27-1.07c-30.12-6.65-59.45-20.45-82.73-40.93l-2.47-2.14A350 350 0 0 1 622 1229l-2.87-2.67c-41.8-40.22-55.35-95.73-51.91-151.89 4.15-44.87 26.74-87.42 57.78-119.44l3.87-4.06C693.8 883.7 793.24 867.48 877 907m324.93-111.16c52.5-1.12 104.4 20.53 140.07 59.16 3 4 3 4 3 6-4.96-1.43-8.92-3.64-13.32-6.32-24.08-13.76-53.8-14.28-79.54-4.92-12.99 5.2-23.6 11.5-33.79 21.06a96 96 0 0 1-5.3 4.54c-28.8 24.92-37.58 64.07-37.26 100.21.67 33.2 17.57 66.17 43.4 87 27.16 20.18 58.3 26.02 91.13 18.68 9.58-2.42 18.01-6.56 26.68-11.25l5.12-2.75c21.45-14.3 34.53-33.1 46.88-55.25l2 1c-.23 9.2-1.85 17.16-4.69 25.87l-1.1 3.46c-13.1 40.45-37.56 76.4-71.2 102.67l-3.06 2.46a177 177 0 0 1-21.37 14.46 169 169 0 0 0-6.32 3.84c-15.57 9.87-34.43 16.08-52.26 20.24q-1.84.43-3.7.9c-55.79 11.91-112.5-2.19-157.3-36.9a348 348 0 0 1-15-14l-2.48-2.29c-39.22-36.94-55.04-94.59-52.25-146.9 2.55-32.52 13.64-69.48 33.73-95.8l2.73-3.78c35.92-48.95 87.24-82.96 148.27-90.23l3.73-.45c4.4-.42 8.8-.53 13.2-.7"/><path fill="#222221" d="M1062 356c6.81 10.48 11.92 21.94 16.93 33.36 1.7 3.81 3.51 7.5 5.45 11.2 28.26 55.81 28.26 55.81 22.68 77-5.02 8.37-10.96 11.82-20.06 14.44-3.99.51-7.9.92-11.91 1.21l-3.45.28-7.33.59q-9.72.77-19.43 1.61l-3.91.34c-17.39 1.5-34.68 3.63-51.97 5.97l-6.4.85A1747 1747 0 0 0 884 519l-9.75 1.84C808.91 533.26 743.67 548.7 680 568l-3.12.94q-9.47 2.88-18.93 5.83-7.1 2.2-14.2 4.37l-11.13 3.42-5.25 1.61A868 868 0 0 0 592 596l-8.25 2.88a746 746 0 0 0-17.12 6.29q-7.8 2.95-15.63 5.83l-3.47 1.28c-29.59 10.82-29.59 10.82-43.03 6.16-11.95-8.32-13.78-17.79-15.19-31.5l-.38-3.63a199 199 0 0 1-.14-37.11c.21-3.2.21-3.2.02-8.26.24-7.39 1.67-14.28 3.13-21.51.93-4.75 1.65-9.46 2.31-14.24 2.18-14.27 5.99-28.27 9.75-42.19l1.38-5.4c1.62-3.6 1.62-3.6 4.37-4.38 5.29-.36 10.34.87 15.5 1.9l3.61.7 7.46 1.46q5.2 1.02 10.39 1.99a1553 1553 0 0 1 31.79 6.35c42.6 8.95 42.6 8.95 63.5 2.38l6.61-2.03q7.5-2.31 14.99-4.67c7.56-2.37 15.16-4.6 22.77-6.79q9.44-2.74 18.82-5.7c11.65-3.56 23.41-6.73 35.19-9.87l5.59-1.5c23.38-6.21 46.93-11.64 70.53-16.94l3.84-.86c18.32-4.11 36.66-7.91 55.18-11.04 5.88-1.01 11.74-2.12 17.6-3.22L906 400l3.02-.55a681 681 0 0 1 37.56-5.74c6.28-.82 12.5-1.88 18.74-2.96q6.72-1.06 13.46-1.87 7.12-.9 14.22-1.88l3.58-.43c10.47-1.77 19.42-7.77 28.52-12.95 4.66-2.61 9.4-5.05 14.15-7.5 5.19-2.67 10.23-5.4 15.17-8.5C1059 355 1059 355 1062 356"/><path fill="#FAFAFA" d="m1353 1363 3.27 2.63c2.73 2.37 2.73 2.37 4.54 5.12 2.19 3.25 2.19 3.25 6.13 6.94 7.27 7.09 12.5 15.87 18.06 24.31l2.34 3.36c23.49 34.47 44.88 85.36 34.97 127.58-2.34 7.96-5.4 14.15-11.31 20.06-3.58.48-3.58.48-7.89.47l-4.8.03h-5.12c-14.89.2-28.65 1.13-43.19 4.5l-3.08.69c-11.33 2.57-22.42 5.24-32.92 10.31l-3.55 1.59c-12.86 5.8-24.54 12.36-35.6 21.15a146 146 0 0 1-6.85 5.07 55 55 0 0 0-8 7.19l-4.12 4.31c-5.08 5.64-9.22 11.84-13.4 18.15-3.88 5.54-6.82 7.98-13.21 9.81l-4.33 1.28-4.94 1.45-11.7 3.7-6.22 1.97-3.15 1.01-15.82 5.02-5.6 1.78C1173 1654 1173 1654 1169 1656l-3.6.44c-5.14.65-9.85 2.08-14.84 3.5-9.82 2.32-9.82 2.32-15.68.25-34.54-37.32-63.89-99.91-64.13-151.5l-.06-3.27c-.05-9.31 1.28-17.97 7.31-25.42 3.97-3.35 8.23-6.07 12.62-8.84 7.14-4.56 14.12-9.35 21.13-14.1l2.48-1.67c18.41-12.46 36.7-25.02 54.55-38.28q5.38-3.97 10.91-7.73a489 489 0 0 0 18.08-13.21c8.84-6.62 17.84-13.02 26.81-19.46l4.54-3.27 4.5-3.24q6.31-4.65 12.5-9.45c36.41-27.31 71.75-26.47 106.88 2.25"/><path fill="#86A527" d="m832 1554 2.77 1.96c8.72 6.22 16.33 12.8 23.23 21.04l2.05 2.29c22.01 25.29 31.96 57.24 27.11 90.44-5.66 27.17-20.18 50.3-42.16 67.27l-2.66 2.07c-20.42 15.37-43.31 23.69-68.09 29.17-3.25.76-3.25.76-5.25 1.76a278 278 0 0 1-68-2l-4.06-.52c-24.14-3.63-52.04-13.73-72.19-27.6a156 156 0 0 0-6.65-4.26c-10.56-6.51-19.32-13.9-28.1-22.62l-2.88-2.73c-23.82-22.88-38.95-57.16-38.12-90.27 2.29-22.54 8.75-42.85 24-60l2.6-3c9.32-10.49 19.31-17.94 31.4-25l2.64-1.59c65.77-38.03 163.65-19.47 222.36 23.59"/><path fill="#BFE144" d="M752.19 217.31c7.77 7.43 13.14 15.85 13.8 26.7l.26 3.74c-.8 13.48-5.92 24.4-16.25 33.25-15 10.43-30.46 15.12-48.72 11.9-6.66-1.83-14.34-4.96-19.28-9.9-5.1-.43-8.7.35-13.36 2.34l-3.6 1.52-3.8 1.64-3.93 1.67-7.8 3.32q-6.59 2.81-13.2 5.57L627 303l-6.06 2.54a2619 2619 0 0 0-74.4 32.84l-8.64 3.93c-44.4 20.4-81.23 48.78-104.64 92.57-2.26 4.12-2.26 4.12-4.7 7.8-3.38 5.7-5.74 11.66-8.18 17.82l-1.45 3.6a477 477 0 0 0-10.58 28.86q-1.38 4.12-2.85 8.2l-1.43 4.03q-.68 1.8-1.34 3.66C402 512 402 512 404 516q2.33 2.3 4.75 4.5c11.07 10.78 13.2 22.54 12.25 37.5-3.16 10.83-9.8 19.44-19 26a383 383 0 0 1-5.75 1.81l-4.25 3.2c0 7.54 1.62 14.84 4 22q.3 3.17.5 6.36c.26 4.03.7 7.64 1.5 11.63q.07 5.12-.01 10.23l-.05 3.06q-.08 4.95-.2 9.9l-.06 3.41C395 781.9 395 781.9 358 814c-7.4 4.77-14.22 6.47-23 6-5.63-1.95-9.33-5.66-12-11-.8-13.05.74-24.95 3.69-37.63l2.2-9.98 1.1-4.85c3.29-14.75 6.27-29.52 8-44.54l-1.36 3.18c-27.2 61.8-27.2 61.8-45.63 82.82l-3.25 3.93c-5.36 5.98-5.36 5.98-10.22 6.28-13.58-.93-24.52-3.2-34.53-13.2q-1.66-.52-3.37-1.08C224.2 787.47 212.15 774.35 206 759l-1-5-2.7-2.07c-9.67-8.58-11.86-22.64-13.3-34.93 1.67-23.94 12.87-38.2 30.64-53.1 2.88-2.48 5.58-5 8.24-7.7 3.89-3.96 7.95-7.56 12.12-11.2l3.5-3.5c3.5-3.5 3.5-3.5 7.23-6.7 4.32-3.85 8.26-7.88 12.2-12.1l2.12-2.28a801 801 0 0 0 18.33-20.3c25.04-28.49 25.04-28.49 37.12-36.06 3.2-2.1 3.2-2.1 5.5-4.06.3-3.63.3-3.63-1-8-1.08-14.52 1.57-25.44 12-36 10.05-7.87 19.55-10.37 32-10.92l3-1.08c.64-3.18.64-3.18 1-8 1.35-4.86 3-9.6 4.63-14.38l1.36-4.04a535 535 0 0 1 11-29.58c3.93-9.72 3.93-9.72 4.84-12.7 6.04-16.9 16.86-33.43 28.17-47.3l3.19-4.19c7.3-9.33 14.57-18.34 23.99-25.62 3.07-2.39 5.96-4.93 8.89-7.5 18.97-16.04 41.62-27.97 63.93-38.69l4.94-2.4a1482 1482 0 0 1 83.12-36.97q7.27-3.02 14.48-6.16c7.35-3.13 14.74-6.13 22.13-9.15A260 260 0 0 0 666 249h2l2.1-8.77c4.25-15.29 16.26-24.28 29.97-30.54 18.47-6.32 36.19-3.94 52.12 7.62"/><path fill="#87A628" d="m1165.93 2026.03 2.39 2.9 2.77 3.34 2.9 3.73 3.18 3.95c23.42 29.88 41.97 62.9 33.87 102.03-6.58 25.48-23.36 44.26-46.84 55.9-17.63 8.05-35.11 12.43-54.2 15.12l-3.71.54c-8.68.94-17.44.7-26.16.7h-3.14c-15.85 0-31.33-.58-47-3.24l-3.08-.52c-47.76-8.22-103-26.18-129.91-69.48-13.73-23.61-14.43-51.05-7-77l.96-3.5q1.62-5.79 3.36-11.56l1.07-3.77c2.7-8.61 2.7-8.61 6.56-10.97q8.83-.43 17.68-.26c13.52.1 27.09.18 40.54-1.44 4.9-.5 9.7-.7 14.63-.78l5.6-.11 5.79-.11c10.86-.2 21.67-.4 32.49-1.27 6.39-.44 12.79-.52 19.2-.66a2348 2348 0 0 0 99.97-4.6l5.58-.38 4.89-.34c13.99-.73 13.99-.73 17.6 1.78"/><path fill="#627A12" d="m1081 1477-4.39 6.05c-4.31 7.91-5.14 15.98-5.05 24.83l.03 3.31c.21 10.26 1.83 19.87 4.41 29.81l1.44 5.59c9.93 36.89 26.58 74.46 50.56 104.41l2.56 3.5c3.33 3.42 5.92 4.86 10.44 6.5a89 89 0 0 0 12.19-2.81c11.25-3.3 11.25-3.3 16.81-2.19 9.08 8.23 16.64 18.24 24 28l2.81 3.72A370 370 0 0 1 1214 1713l1.98 3.13c16.04 25.6 30.85 53.03 40.02 81.87l1.36 4.14c2 6.43 3.22 12.04 2.64 18.86-1 1-1 1-5.43.77-5.61-.77-10.32-2.18-15.63-4.08-31.61-10.87-31.61-10.87-40.8-6.26-4.2 3.43-6.83 7.6-9.7 12.13l-3.69 5.66-1.88 2.9a920 920 0 0 1-8.93 13.44l-3.1 4.63c-4.41 5.92-4.41 5.92-7.84 7.81-8.91-3.57-11.15-13.99-14.25-22.56-4.05-12.5-6.8-25.28-9.7-38.08-6.51-28.47-13.56-57.07-24.05-84.36l-1.08-2.84c-6.44-16.92-6.44-16.92-8.92-18.16l-.28 4.68c-.8 9.57-2.62 18.99-4.28 28.44l-2.19 12.65-.57 3.28q-1.96 11.48-3.74 23l-.51 3.23-.5 3.21c-12.67 81.37-12.67 81.37-22.93 93.51l-4 1c-3.8-3.19-6.7-7.05-9.69-11l-2.62-3.45-2.69-3.55q-3.82-5-7.68-9.98-2.19-2.85-4.33-5.73c-3.82-5.12-6.84-8.84-13.49-9.79-13.6 1.51-26.85 9.72-39.05 15.5l-4.3 1.99-3.87 1.83C975 1842 975 1842 971 1841c-.88-7.59 1.05-14.59 2.94-21.88l.96-3.72c7.1-26.97 17.37-52.15 29.93-77.05 2.17-4.35 2.17-4.35 4.17-9.35q2.2-3.7 4.5-7.31a844 844 0 0 0 7.96-12.73 220 220 0 0 1 17.36-24.44c2.18-3.52 2.18-3.52 2.45-6.54-1.84-4.32-4.88-6.78-8.27-9.98-8.23-10.07-15.4-20.81-22-32l-2.08-3.5c-16.7-29.53-28.67-70.04-20.73-103.75 8.94-23.44 40.72-35.76 63.06-43.73 2.95-1.09 5.77-2.37 8.63-3.71 7.48-3.38 12.89-4.56 21.12-4.31"/><path fill="#86A527" d="M1420 1538c4.85.16 8.38.78 13 2l4.19.96c27.2 6.75 51.9 22.23 65.87 47.07 14.11 28.92 13.21 58.54.94 87.97-6.34 14.21-14.32 25.76-25 37l-2.82 2.98c-35.79 36.86-89.92 51.69-140.18 49.02-27.85-2.35-57.97-10.36-78-31l-4.19-3.62c-19.45-17.23-26.45-38.73-26.2-64.34.65-8.34 2.87-16.1 5.39-24.04l1.51-4.86c1.75-4.86 4.02-7.3 7.49-11.14a524 524 0 0 0 4.81-6.81c14.22-20.09 34.03-35.6 56.19-46.19l2.84-1.38q4.06-1.87 8.16-3.62l3.13-1.43c11.88-5.14 24.26-7.87 36.87-10.57l4.5-1.01c8-1.53 15.81-2.06 23.95-2.18l5.18-.07q5.19-.06 10.38-.01l4.86-.03 4.38.03c4.87-.95 6.11-2.62 8.75-6.73l1.5-4.5z"/><path fill="#101010" d="M934.99 956.3c4.65 4.16 8.34 8.67 12 13.7q1.5 1.91 3 3.9c12.36 16.12 20.62 31.52 25.32 51.35l1.05 4.21c8.62 35.35 4.56 68.1-16.17 98.35-22.86 29.62-54.47 49.48-92.44 51.35-33.17.82-61.13-11.32-84.75-34.16l-3.38-3.18c-25.42-26.85-33.58-64.15-30.12-100 4.22-29.26 16.69-54.79 37.5-75.82l2.2-2.42c38.57-41.5 103.02-40.9 145.79-7.28m414.56-91.59c2.45 2.3 2.45 2.3 2.45 4.3l4 2c29.3 24.41 39.68 67.16 40.31 103.61-.1 9.02-1.29 17.6-3.3 26.38l-1.22 5.26c-1.78 6.4-4.79 11.81-8.17 17.5l-1.88 3.16A130 130 0 0 1 1363 1051l-3.15 3.22c-25.99 25.32-59.82 33.8-95.22 30.35-31.1-5.45-56.33-26.44-72.63-52.57l-3.19-4.75c-10-18.69-13.99-37.97-14-58.94l-.04-3.9c-.05-36.66 16.64-69.96 42.98-94.98 39.46-31.92 90.46-36.29 131.8-4.72"/><path fill="#87A628" d="M704 1307c17.41 17.41 27.29 46.18 25.88 70.62a227 227 0 0 1-.88 6.38l-.54 4.2c-3.83 26.78-15.9 49.35-34.46 68.8l-3.56 3.94c-23.09 22.72-54.85 33.68-86.63 33.56l-5.25-.02c-12-.17-22.32-1.03-33.56-5.48l-4.99-1.87c-8.86-3.5-16.53-7.23-24.01-13.13l-2.5-1.9c-25.96-20.02-40.04-49.33-41.75-81.85 1.72-36.15 15.07-69.89 44.06-92.88 53.73-39.97 119.93-36.79 168.19 9.63"/><path fill="#86A527" d="M1467.77 1170.3c27.44 25.03 36.25 53.3 35.41 89.85-1.58 33.92-23.39 62.87-48.75 83.6-24.84 18.2-52.33 24.11-82.56 24.87l-3.92.22c-10.14.2-14.18-2.6-20.95-9.84-11.72-8.57-23.12-13.84-37.2-17.1l-3.8-.9-3.65-.7c-13.47-5.25-22.48-29.77-27.13-42.52-10.57-32.65-4.55-65.64 12.78-94.78 2.46-3.87 5.11-7.45 8-11l2.9-3.62c41.22-49.6 119.05-61.7 168.87-18.08"/><path fill="#F9F9F9" d="m989 1527-.44 4.06-.56 5.38-.56 5.31c-4 48.05 20.78 98.17 52.68 132.63 1.88 2.62 1.88 2.62.88 7.62a122 122 0 0 1-4.94 6.81c-6.89 9.17-12.84 18.81-18.73 28.65l-2.64 4.35-2.37 3.96c-3.39 4.71-8.29 6.77-13.26 9.54a487 487 0 0 0-19.31 11.75l-2.76 1.75a398 398 0 0 0-15.36 10.4 188 188 0 0 1-8.39 5.33c-9.88 6.01-19.47 12.46-29.12 18.84l-5.8 3.82c-24.47 16.16-24.47 16.16-35.57 23.68-20.97 14.21-40.14 24.29-66.31 19-23.32-9.86-38.2-28.77-46.38-52.5C769 1773 769 1773 769 1769c2.58-1.05 2.58-1.05 6.25-1.88 25.79-6.22 48.6-14.82 69.75-31.12l3.53-2.67c16.84-13.49 29.93-33.39 35.47-54.33l.9-3.3c7.2-30.32-.27-60.29-17.78-85.51L861 1582c1-4 1-4 3.83-5.68l3.98-1.76 4.64-2.08 2.64-1.17q4.88-2.21 9.74-4.51c21.61-10.16 21.61-10.16 32.51-14.36 4.58-1.8 9.08-3.74 13.6-5.69 49.42-21.28 49.42-21.28 57.06-19.75"/><path fill="#BFE144" d="M752.19 217.31c7.77 7.43 13.14 15.85 13.8 26.7l.26 3.74c-.8 13.48-5.92 24.4-16.25 33.25-15 10.43-30.46 15.12-48.72 11.9-6.66-1.83-14.34-4.96-19.28-9.9-5.1-.43-8.7.35-13.36 2.34l-3.6 1.52-3.8 1.64-3.93 1.67-7.8 3.32q-6.59 2.81-13.2 5.57L627 303l-6.06 2.54a2619 2619 0 0 0-74.4 32.84l-8.64 3.93c-44.4 20.4-81.23 48.78-104.64 92.57-2.26 4.12-2.26 4.12-4.7 7.8-3.38 5.7-5.74 11.66-8.18 17.82l-1.45 3.6a425 425 0 0 0-9.3 24.96l-1.3 3.9q-1.37 4.13-2.66 8.31l-1.3 4.1c-.18.63-.18.63-1.16 3.78C402 512 402 512 399 513q-3.82-1.29-7.56-2.8A90 90 0 0 0 373 505c-1-1-1-1-.85-4.17 1.17-6.64 3.3-12.83 5.48-19.2l1.36-4.05a535 535 0 0 1 11-29.58c3.93-9.72 3.93-9.72 4.84-12.7 6.04-16.9 16.86-33.43 28.17-47.3l3.19-4.19c7.3-9.33 14.57-18.34 23.99-25.62 3.07-2.39 5.96-4.93 8.89-7.5 18.97-16.04 41.62-27.97 63.93-38.69l4.94-2.4a1482 1482 0 0 1 83.12-36.97q7.27-3.02 14.48-6.16c7.35-3.13 14.74-6.13 22.13-9.15A260 260 0 0 0 666 249h2l2.1-8.77c4.25-15.29 16.26-24.28 29.97-30.54 18.47-6.32 36.19-3.94 52.12 7.62"/><path fill="#101010" d="M1134.38 1213.75c8.11 6.96 13.2 15.43 13.88 26.25-1.21 24.03-15.5 44.87-31.27 62l-2.35 2.64c-28.33 30.23-74.47 47.44-115.65 45.36-30.59-1.96-57.7-11.69-80-33l-3.67-3.37c-10.2-11.16-15.8-23.38-14.33-38.63 3.23-12.49 11.65-18.82 22.76-24.37 10.46-3.24 20.38-2.42 30.25 2.37 4.8 3.53 8.4 7.41 12.07 12.06 10.7 13.61 25.97 18.52 42.92 19.94 4.85-.13 9.3-.9 14-2l4.45-1.01c18.97-4.77 35.38-14.87 45.55-31.99 1.96-4.58 3.47-9.26 5-14 4.92-13.12 12.13-21.08 25.33-26.31 10.62-1.98 21.38-.95 31.06 4.06"/><path fill="#7E9C1E" d="m1081 1477-4.39 6.05c-4.31 7.91-5.14 15.98-5.05 24.83l.03 3.31c.21 10.26 1.83 19.87 4.41 29.81l1.44 5.59c9.93 36.87 26.56 74.49 50.56 104.41l2.56 3.44c2.44 2.56 2.44 2.56 6.88 5.12l3.56 2.44c-4.83 12.07-24.97 19.46-36.69 24.05-5.15 1.48-10.38 2.52-15.62 3.57l-3.31.7c-16.88 3.41-26.77-.36-40.38-10.32l-3-1-4-6-4-4.31c-32.12-35.33-51.14-86.08-47-133.69 1.86-12.26 8.34-21.14 18.71-27.72 14.42-8.51 29.75-16.63 45.54-22.26 2.95-1.09 5.77-2.37 8.63-3.71 7.48-3.38 12.89-4.56 21.12-4.31"/><path fill="#CBCAC9" d="M1338 1381c28.59 26.3 47.22 63.44 59 100l1.32 3.98c4.36 14.76 5.36 31.95-1.32 46.02-5.25 7.23-11 11.37-20 12.31-21.4-1.67-36.63-18.62-48.62-34.9-23.2-33.2-55.03-83.15-44.46-125.27 2.44-7.11 6.27-12.8 13.08-16.14 15.61-5.05 29.69 3.77 41 14"/><path fill="#86A527" d="m407 519 3.62 3.19c9.54 10.77 11.28 21.82 10.38 35.81-3.93 13.47-13.51 23.9-26.09 29.99-5.43 1.88-10.85 1.61-16.53 1.45l-3.57-.02c-18.35-.26-31.6-7.57-43.25-21.54-6.79-10.28-8.35-21.9-5.95-33.95 4.22-13.03 13.31-20.89 25.64-26.18 19.09-6.33 41.24-3.78 55.75 11.25"/><path fill="#87A628" d="M273 703c1.29 5.14.09 6.39-2.38 11-3.27 6.3-6.3 12.64-9.18 19.12a279 279 0 0 1-8.13 17c-5.99 11.76-10.51 24.48-10.37 37.76l.02 3.49.04 2.63c-12.25-1.19-24.07-12.96-30.88-22.68-6.54-10.63-6.54-10.63-5.12-16.32q3.95-.66 7.91-1.28c9.75-2.28 17.07-10.2 24.09-16.87a205 205 0 0 1 7.12-6.41A234 234 0 0 0 268 708q2.47-2.53 5-5"/><path fill="#161616" d="M941 971c7.59 1.52 11.13 4.47 15 11v6c-4.62 1.69-4.62 1.69-10 2-3.26-2.06-5.27-3.54-7-7-.28-4.91.12-7.29 2-12"/><path fill="#C8E94D" d="M971 504v2a131 131 0 0 1-9 2l-3.14.61q-5.27 1-10.55 1.95l-3.57.67c-6.04 1.1-11.94 1.9-18.07 2.23-5.68.34-10.29 1.65-15.67 3.54-4.08.65-8.09 1.22-12.19 1.69l-3.19.39c-4.93.59-9.65.92-14.62.92 3.35-2.23 5.55-2.64 9.49-3.33l4.03-.73 4.36-.75 4.47-.8 9.18-1.61 12.33-2.18C962.2 504 962.2 504 971 504"/><path fill="#171717" d="M969 1024h2c3.34 5.98 4.91 13.17 5 20l-3 4c-5 0-5 0-7-2-2.32-6.7-2.82-11.32.38-17.88z"/><path fill="#C8E94D" d="M1375 894c15.71 14.24 22.07 43.9 23.25 64.31L1398 962l-3 1-.52-4.5c-2.7-22.74-9.07-42.01-19.48-62.5zm-432 71c9.03-.61 9.03-.61 13.22 2.02 3.41 3.66 3.88 6.01 4.59 10.92l.65 4.15.54 3.91 1 6-1.77-2.21q-2.98-3.72-5.98-7.41C943 967.06 943 967.06 943 965m102-470c-1 3-1 3-3 4q-3.56.24-7.12.38c-7.64.4-15.17 1.17-22.76 2.12l-3.18.4c-7.54.97-7.54.97-10.94 2.1-8.33.89-16.63 1.11-25 1 2.87-2.87 5.34-2.66 9.34-3.18l4.62-.62 4.98-.64 5.04-.66q15.2-1.98 30.46-3.71l3.31-.38c4.8-.52 9.41-.81 14.25-.81"/><path fill="#171717" d="m906 1161 3 3c-2.74 5.48-5.28 5.98-11 8-4.12.74-7.78.95-12 1-1-3-1-3 .38-5.44 3.46-3.38 7.16-4.78 11.62-6.56 2.94-1.47 4.87-.77 8 0m-150-133 4 2c.57 3.23.57 3.23.69 7.19.13 3.94.27 7.61 1.02 11.49.29 3.32.29 3.32-2.71 8.32l-4-1c-1.08-2.77-1.08-2.77-1.81-6.25l-.77-3.45c-.74-5.82 1.25-11.63 2.58-17.3z"/><path fill="#C8E94D" d="M680 278c3.55 2.1 6.7 4.52 10 7 8.01 3.12 15.49 4.45 24.06 3.95 3.32.06 5.86.87 8.94 2.05-1 2-1 2-4 3-12.71.61-27.54-1.54-37-11-4.31-.24-7.73.15-12 1 4.38-6 4.38-6 10-6m196 243c-2 2-2 2-5.62 2.38-5.99.69-11.56 2.13-17.38 3.65-3.44.83-6.81 1.46-10.31 1.97-5.93 1.04-11.06 2.91-16.69 5-7.53 1.91-14.29 2.18-22 2 4.72-2.36 9.46-3.48 14.56-4.69l3.24-.77c14.23-3.34 28.58-6.09 42.93-8.88 7.69-1.55 7.69-1.55 11.27-.66M625 269c-8.67 5.12-17.42 9.57-26.95 12.87-8.24 3.05-16.25 6.8-24.17 10.57C570 294 570 294 564 294c3.74-2.81 6.9-4.4 11.17-6.23l4.32-1.86L584 284l4.33-1.85 17.37-7.34 4.25-1.8 3.82-1.61c7.62-3.3 7.62-3.3 11.23-2.4"/><path fill="#171717" d="M909 943c3.69 2.38 3.69 2.38 6 5-2 4-2 4-7 6-4.19-.19-4.19-.19-8-1-2.59-3.88-2.3-6.42-2-11 3.7-1.85 7.21-.1 11 1"/><path fill="#C8E94D" d="M437 424c1.37 4.11.09 5.07-2.12 8.69l-1.96 3.21L431 439l-2.88 4.75L426 447h-1l-.38-3.31C424 440 424 440 422 437c.12-3.5.12-3.5 1-7 4-3 4-3 10-3z"/><path fill="#171717" d="M922 1257c1 4 1 4-.62 6.44-2.4 2.58-4.89 5.07-7.38 7.56l-2.12 2.88L910 1276l-3-1c-.5-4.81-.5-4.81 0-10 2.38-2.44 2.38-2.44 5-4l2-3c3-1 3-1 8-1"/><path fill="#C8E94D" d="M971 1010a27.5 27.5 0 0 1 12 18l-1 2-.44 5c-.56 5-.56 5-2.56 7a75 75 0 0 1-3.51-10.89l-.8-3.34-.81-3.46-.84-3.49c-2.04-8.55-2.04-8.55-2.04-10.82"/></svg>