<svg aria-hidden="true" xmlns="http://www.w3.org/2000/svg" width="940" height="1100" viewBox="0 0 1880 2200"><path fill="#BEE141" d="m1053.06 100.44 3 .69a501 501 0 0 1 60.12 18.06l5.41 1.98A496 496 0 0 1 1178 146l4.67 2.4A448 448 0 0 1 1212 165q2.01 1.24 4.1 2.5a270 270 0 0 1 20.26 13.58c2.78 2.03 5.63 3.92 8.51 5.8 10.27 6.79 19.73 14.54 29.07 22.54q4 3.36 8.12 6.58a238 238 0 0 1 21.2 19.25 154 154 0 0 0 7.68 7.19c8.35 7.33 15.63 15.38 22.84 23.82l3.1 3.62 3.14 3.68q3.7 4.28 7.54 8.44c35.01 38.66 62.5 85.83 86.3 131.94q3.88 7.5 7.9 14.94c24.03 45.72 44.15 93.43 62.85 141.55l3.52 9.02c4.97 12.8 9.48 25.78 14.01 38.76 3.08 8.8 6.22 17.58 9.54 26.29 9 23.68 16.8 47.8 24.77 71.84l6.25 18.79 3.08 9.23q3.1 9.35 6.26 18.65c4.46 13.18 8.6 26.45 12.71 39.74a2193 2193 0 0 0 17.78 54.88q3.03 9 6.01 18l3.03 9.09q3.6 10.72 7.1 21.47a1116 1116 0 0 0 18.11 50.95 557 557 0 0 1 9.14 25.62 326 326 0 0 0 4.45 12.37 666 666 0 0 1 8.51 24.56q2.37 7.09 4.9 14.13c16.26 46.02 29.38 93.6 40.22 141.18l.7 2.97c5.46 23.52 9.83 47.24 13.61 71.09l.51 3.22c.9 5.95 1.31 11.7 1.36 17.72.31 6.92 2.4 9.84 7.34 14.52 20.4 20.42 25.5 54.36 23.2 81.76-3.35 25.13-14.29 50.18-31.02 69.36-2.62 3.64-2.5 7.66-3.04 12-4.23 27.73-15.12 54.98-26.66 80.36l-2 5c1.75 2.55 1.75 2.55 4.56 5.32 7 7.18 13.21 14.84 19.44 22.68l2.55 3.17c35.02 44.32 91.84 134.6 80.45 193.83-3.52 8.69-7.44 13.83-15.94 17.88-7.76 2.15-13.69 1.3-21.06-1.88-11.1-8.04-12.93-18.95-15.82-31.62-4.72-20.05-10.47-39.25-18.18-58.38l-1.05-2.83c-3.4-9.13-7.45-17.85-11.7-26.61l-2.02-4.23A213 213 0 0 0 1694 1624l-3.12-4.77c-22.06-33.3-22.06-33.3-27.88-35.23a143 143 0 0 0-6.5 9.88l-3.82 6.13-1.9 3.1c-16.63 26.99-35.97 52.98-57.44 76.34-3.18 3.46-6.25 7-9.34 10.55q-4.47 5.03-9 10l-3.19 3.5a206 206 0 0 1-17.8 17.5 807 807 0 0 0-5.83 5.88 163 163 0 0 1-14.6 13.04 171 171 0 0 0-7.08 6.08c-10.6 9.48-21.93 17.76-33.5 26l-4.2 3.05c-29.49 21.2-62 39.94-95.62 53.76a318 318 0 0 0-12.34 5.57 335 335 0 0 1-23.16 9.68l-4.08 1.58a471 471 0 0 1-26.07 9.18c-7.48 2.5-7.48 2.5-10.53 4.18-.17 4.7.24 8.39 1 13l.81 6.02.94 6.48.43 3.19c1.6 9.99 1.6 9.99 6.82 13.3 3.74 1.07 7.32 1.9 11.12 2.64 29.8 6.44 58.77 20.28 80.88 41.37l4 3.63c17.32 18.94 25.88 41.8 24 67.37a91.5 91.5 0 0 1-28 54l-2.38 2.44c-43.38 42.35-107.73 48.68-165.4 42.96a356 356 0 0 1-16.22-2.4l-5.4-.84c-34.38-5.71-72.07-17.05-99.6-39.16l-2.62-2c-11.6-9.13-22.37-19.53-30.38-32l-2.24-3.45c-22.64-36.33-29.34-81.6-24.59-123.73l-.17-2.82c-5.09-1.27-9.17-.7-14.4-.22-38.66 3.18-77.09 3.57-115.85 3.27l-13.06-.08q-4.55-.04-9.08-.1l-5.53-.03-4.82-.05c-4.1.2-7.36 1-11.26 2.2h-10c-5.35.56-10.67 1.3-16 2a392 392 0 0 1-30.2 2.79 196 196 0 0 0-9.05.78c-4.66.43-9.2.4-13.88.34-7.99.2-15.93 1.22-23.87 2.1l.44 4.87c4.28 49.3-3.32 93.55-38.82 130.07-51.2 50.89-133.6 65.02-202.88 58.98-32.82-3.16-67.72-12.11-91.74-35.92l-3.63-2.87c-19.06-17.65-27.39-43.56-27.37-69 1.4-26.7 14.08-52.57 32-72.13l2.66-2.91c10.58-11.05 22.76-19.9 35.96-27.56C502 1904 502 1904 503 1902l-3-.48a451 451 0 0 1-34.32-7.4l-5.18-1.27L445 1889l-5.48-1.35-5.34-1.33-4.8-1.18A331 331 0 0 1 409 1879l-6.12-1.93A385 385 0 0 1 357 1859l-2.95-1.36A418 418 0 0 1 325 1843l-3.09-1.6c-8.1-4.22-15.47-9.1-22.9-14.4l-7.39-5.11a480 480 0 0 1-22.42-16.4c-3.69-2.87-7.45-5.64-11.2-8.43a322 322 0 0 1-18-14.56c-2.7-2.24-5.43-4.26-8.32-6.25-6.66-4.65-12.19-10.48-17.89-16.25-5.28-4.17-7.98-3.5-14.3-2.38l-3.62.82c-12.15 2.52-24.17 4.78-35.25-2.2-6.56-5.87-9.24-11.4-9.94-20.18.64-8.22 4.04-13.83 9.32-20.06l5-3c-1.29-5.15-3.68-7.08-7.38-10.87-11.2-11.8-20.28-24.18-28.62-38.13l-2.57-4.2c-10.46-17.34-17.63-35.25-24.22-54.32q-1.92-5.45-3.89-10.88c-7.96-22.28-10.7-46.94-12.96-70.4C85 1521 85 1521 84 1517q-.14-3.01-.15-6.03l-.02-3.7v-8.11q-.03-4.34-.02-8.66 0-6.59-.04-13.16v-8.43l-.02-3.93c.01-7.2.52-14 1.82-21.07.43-2.91.43-2.91.43-8.91l1-2 .25-5.62c.64-10.04 3-19.74 5.14-29.54.83-3.87 1.53-7.76 2.23-11.65a203 203 0 0 1 4.38-18.2l.87-4.61c2.78-13.27 7.28-26.12 11.81-38.88l1.58-4.43c5.26-14.73 10.71-29.44 17.3-43.63 3-6.7 5.28-13.52 7.6-20.47 1.93-5.22 4.32-10.01 6.84-14.97 1.7-3.84 3.28-7.73 4.87-11.62a623 623 0 0 1 8.81-20.56c3.38-7.66 5.98-15.5 8.56-23.45 1.7-5.2 3.5-10.34 5.32-15.5a684 684 0 0 0 7.97-24.18q1.45-4.62 2.96-9.22c8.82-26.91 13.88-54.75 18.32-82.65l.66-4.15.61-3.9.54-3.45c.38-3.32.38-3.32.38-7 0-3.32 0-3.32.93-7.21 1.51-7.25 1.76-14.47 2.13-21.86l.47-8.86.23-4.35q.3-5.18.76-10.37c.71-8.87.85-17.77 1.04-26.67l.13-5.8q.36-17.12.25-34.26c-.1-18.24.44-36.46 1-54.7l.13-4.47.4-12.75.11-3.88c.21-6.43.63-12.75 1.42-19.14q.22-4.2.37-8.37c1.05-21.8 3.15-43.53 5.75-65.2l.52-4.3c1.23-9.87 1.23-9.87 2.36-12.13q.48-3.94.85-7.9a427 427 0 0 1 4.46-29.78l.95-5.34a724 724 0 0 1 8.47-41.16 1075 1075 0 0 1 12.63-49.17c2.6-9.32 5.52-18.5 8.64-27.65l2.43-7.36c6.3-19.1 12.7-37.91 21.12-56.2a518 518 0 0 0 6.5-15.14 331 331 0 0 1 14.62-31c2.2-4.04 4.28-8.12 6.33-12.24l1.94-3.9q2.25-4.53 4.46-9.11A241 241 0 0 1 332 406q2.1-3.27 4.18-6.56c5-7.77 10.12-15.44 15.26-23.11q3.4-5.1 6.74-10.22a207 207 0 0 1 17.43-23.37c3-3.44 5.7-7.06 8.4-10.74 6-8.01 12.18-15.66 19-23l5.11-5.62 2.55-2.8q2.88-3.21 5.7-6.45c10.9-12.4 22.16-24.3 34.63-35.13l3.81-3.87c4.81-4.74 9.92-8.91 15.2-13.13l5.43-4.44 2.74-2.23q2.93-2.42 5.83-4.87a192 192 0 0 1 16.37-12.62c3.04-2.14 5.95-4.42 8.87-6.71 6.65-5.16 13.6-9.7 20.75-14.13l3.07-1.92c8.17-5.06 16.42-10 24.67-14.92l10.43-6.31A338 338 0 0 1 599 157l5.31-2.53q5.33-2.56 10.68-5.07 5.01-2.4 9.96-4.93a194 194 0 0 1 15.92-6.78l6.1-2.35 3.07-1.18c4.42-1.73 8.81-3.54 13.21-5.34a284 284 0 0 1 23.24-8.13 913 913 0 0 0 12.55-3.96c45.3-14.62 92.54-25.57 140.18-28.31 4.37-.31 8.58-.78 12.91-1.4a293 293 0 0 1 25.31-2.14q2.4-.14 4.88-.26c57.56-2.77 114.66 2.8 170.74 15.82"/><path fill="#83A325" d="M835 90c-3.35 2.24-6.27 3.11-10.13 4.27-56.41 17.29-110.98 45.93-155.6 84.89-2.9 2.52-5.84 4.94-8.83 7.34a283 283 0 0 0-22.88 20.94C634 211 634 211 630.94 213.5c-3.73 3.18-6.72 6.81-9.94 10.5a805 805 0 0 1-5.88 5.81 158 158 0 0 0-12.65 14.23c-2.97 3.56-6.14 6.86-9.35 10.21a175 175 0 0 0-15.48 19.08c-2.57 3.57-5.26 7-8.02 10.42-6.67 8.43-12.63 17.32-18.62 26.25l-2.96 4.37a647 647 0 0 0-37.39 62.49 637 637 0 0 1-4.36 8.15C468.11 455.9 443.49 534.06 429 613l-.69 3.74A479 479 0 0 0 425 638l-.59 4.33a945 945 0 0 0-6.16 58.42l-.35 4.85c-1.71 25.59-2.11 51.2-2.09 76.84v4.42c.06 50.33 3.34 100.48 7.56 150.61 3.92 46.96 6.11 93.58.63 140.53l-.51 4.46c-3.3 28.13-8.83 55.87-14.29 83.64a1868 1868 0 0 0-10.65 58.81q-.65 3.57-1.55 7.09c-.25 3.69-.25 3.69 0 7 4.03 1.34 7.75 1.24 12 1.38 35.63 1.74 69.59 13.11 101 29.62l5.31 2.64c13.15 6.57 25.22 14.1 37.21 22.61 3.62 2.55 7.3 5.02 10.98 7.5A278 278 0 0 1 595 1328l3 2.72c8.55 7.77 16.64 15.59 23.82 24.67L624 1358l2.33 2.89c2.67 2.11 2.67 2.11 5.88 2.15 4.59-1.26 8.93-2.86 13.35-4.6 9.71-3.79 19.46-7.36 29.27-10.87C679 1346 679 1346 680 1345q.24-3.62.38-7.25c1.09-18.11 6.51-34.35 21.36-45.88 17.3-11.82 37.52-19.58 56.8-27.51A266 266 0 0 0 777 1256c5.02-2.2 10.07-4.32 15.12-6.44a2244 2244 0 0 0 30.23-12.94l7.43-3.27c19.8-8.66 41.2-16.06 62.22-6.35 8.89 4.55 15.86 11.12 23 18l3.69 3.31c11.67 13 18.99 29.41 24.31 45.88l1.28 3.91a492 492 0 0 1 9.96 35.76q1.12 4.58 2.26 9.15c2.6 10.74 4.32 20.95 4.5 31.99l.15 3.53c.7 24.72-7.89 44.96-25.71 61.85-11.43 8.72-25.2 10.07-39.06 11.68l-4.31.52L880 1454l-5.24.63a719 719 0 0 1-26.62 2.48c-9.34.76-18.64 1.82-27.95 2.89-79.54 9.02-79.54 9.02-102.19-11-8.99-8.62-15.03-18.8-19.5-30.38L696 1414c-7.28-1.2-13.43 1.71-20.06 4.38l-6.29 2.46-2.95 1.17c-2.7.99-2.7.99-6.93 1.97L657 1425c-.25 5-.25 5-.07 8.26.46 24.4-11.38 43.97-27.93 60.74l-2.81 2.85c-31.52 30.41-79.61 41.5-122.28 37.7q-4.52-.52-9.03-1.11c-10.87-1.23-10.87-1.23-16 3.31l-2.84 2.48L473 1542l-3.32 2.99a381 381 0 0 0-14.12 13.45c-3.56 3.56-3.56 3.56-6.62 6.06-3.74 3.18-6.78 6.76-9.94 10.5l-2.5 2.69c-1.5 2.31-1.5 2.31-.5 7.31q2.96 4.03 6 8 2.95 4.92 5.75 9.94l3.16 5.6 1.57 2.79c3.75 6.61 7.64 13.14 11.52 19.67l2.2 3.72c15.65 26.3 32.47 51.53 51.8 75.28l3.94 5a522 522 0 0 0 26.16 29.87q2.88 3.12 5.71 6.29a127 127 0 0 0 16.44 15.63c2.88 2.32 5.59 4.76 8.31 7.27A257 257 0 0 0 594 1787l2.36 1.92A365 365 0 0 0 618 1805l3.68 2.59c18.46 12.85 37.22 24.33 57.32 34.41l4.27 2.17q5.84 2.95 11.73 5.83l4.49 2.25c27.46 13.51 56.38 23.51 85.51 32.75l3.37 1.07c26.02 8.16 52.75 13.98 79.63 18.43q4.15.7 8.31 1.43c6.55 1.14 13 2.17 19.63 2.63 5.06.44 5.06.44 8.06 2.44-4.11 2.74-7.44 3.01-12.31 2.94-7.34.08-14.43 1.08-21.69 2.06a391 391 0 0 1-30.2 2.78 196 196 0 0 0-9.05.78c-4.66.43-9.21.39-13.88.34-7.99.2-15.93 1.21-23.87 2.1l.44 4.87c4.29 49.3-3.32 93.55-38.82 130.07-51.2 50.89-133.6 65.02-202.88 58.97-32.81-3.15-67.72-12.1-91.74-35.91l-3.62-2.88c-19.06-17.64-27.4-43.56-27.38-68.98 1.4-26.7 14.08-52.58 32-72.14l2.66-2.91c10.58-11.05 22.76-19.89 35.96-27.57C502 1904 502 1904 503 1902l-3-.48a451 451 0 0 1-34.31-7.4l-5.19-1.27L445 1889l-5.48-1.36a1360 1360 0 0 1-10.13-2.51A337 337 0 0 1 409 1879l-6.12-1.93A385 385 0 0 1 357 1859l-2.95-1.37A415 415 0 0 1 325 1843l-3.09-1.6c-8.11-4.22-15.47-9.1-22.91-14.4l-7.38-5.12a485 485 0 0 1-22.42-16.39 575 575 0 0 0-11.2-8.43 326 326 0 0 1-18-14.56 115 115 0 0 0-8.31-6.25c-6.66-4.66-12.2-10.49-17.89-16.25-5.28-4.17-7.98-3.5-14.31-2.38l-3.61.82c-12.16 2.52-24.18 4.77-35.26-2.19-6.56-5.88-9.24-11.4-9.93-20.19.63-8.23 4.03-13.83 9.31-20.06l5-3c-1.29-5.15-3.67-7.08-7.38-10.88-11.19-11.8-20.28-24.17-28.62-38.12l-2.57-4.2c-10.46-17.34-17.62-35.25-24.22-54.32a827 827 0 0 0-3.89-10.88c-7.95-22.28-10.7-46.94-12.96-70.4C85 1521 85 1521 84 1517q-.14-3.01-.15-6.03l-.01-3.7-.01-3.98-.01-4.13-.01-8.66q0-6.58-.03-13.16l-.01-8.43-.02-3.93c.02-7.19.53-14 1.82-21.07.43-2.91.43-2.91.43-8.91l1-2 .25-5.62c.64-10.04 3.01-19.74 5.15-29.54a357 357 0 0 0 2.22-11.65A203 203 0 0 1 99 1368l.88-4.62c2.77-13.28 7.27-26.12 11.81-38.88l1.57-4.44c5.26-14.72 10.72-29.43 17.31-43.62 2.99-6.7 5.27-13.52 7.59-20.48 1.93-5.21 4.33-10 6.84-14.96q2.51-5.78 4.88-11.62a591 591 0 0 1 8.81-20.57c3.38-7.65 5.98-15.49 8.56-23.44 1.69-5.2 3.49-10.35 5.31-15.49a684 684 0 0 0 7.98-24.19q1.43-4.62 2.96-9.23c8.81-26.9 13.87-54.74 18.31-82.65l.67-4.14.6-3.9.54-3.45c.38-3.32.38-3.32.38-7 0-3.32 0-3.32.93-7.21 1.52-7.25 1.76-14.48 2.13-21.86l.48-8.86.22-4.35q.32-5.2.76-10.37c.71-8.87.85-17.77 1.04-26.67l.14-5.8q.36-17.12.24-34.26c-.11-18.24.45-36.46 1-54.69l.13-4.48.39-12.75.12-3.88A215 215 0 0 1 213 821q.22-4.18.38-8.38c1.04-21.79 3.14-43.52 5.74-65.18l.52-4.31c1.23-9.87 1.23-9.87 2.36-12.13q.47-3.94.86-7.89a427 427 0 0 1 4.45-29.8l.95-5.33A722 722 0 0 1 236 650l.73-3.18a1079 1079 0 0 1 12.63-49.17A523 523 0 0 1 258 570l2.43-7.36c6.31-19.09 12.71-37.92 21.12-56.2a530 530 0 0 0 6.49-15.14 328 328 0 0 1 14.63-31q3.27-6.06 6.33-12.24l1.94-3.89q2.25-4.56 4.46-9.12A241 241 0 0 1 332 406l4.19-6.56c4.99-7.77 10.12-15.44 15.26-23.11q3.4-5.09 6.73-10.22a206 206 0 0 1 17.43-23.37c3-3.44 5.69-7.06 8.39-10.74 6-8.01 12.19-15.66 19-23l5.12-5.62 2.55-2.8q2.89-3.2 5.71-6.46c10.89-12.4 22.15-24.29 34.62-35.12l3.81-3.88c4.81-4.73 9.92-8.91 15.19-13.12l5.44-4.44 2.74-2.24q2.92-2.42 5.83-4.86c5.3-4.49 10.63-8.72 16.38-12.62 3.04-2.14 5.94-4.42 8.86-6.72 6.66-5.15 13.6-9.69 20.75-14.12l3.07-1.92c8.17-5.06 16.42-9.99 24.67-14.92q5.23-3.14 10.43-6.32A338 338 0 0 1 599 157l5.31-2.54 10.68-5.07q5.01-2.4 9.96-4.92a191 191 0 0 1 15.93-6.78 1102 1102 0 0 1 9.16-3.53c4.43-1.73 8.81-3.55 13.21-5.35a289 289 0 0 1 23.24-8.13q6.3-1.92 12.55-3.96a675 675 0 0 1 100.71-23.97l5-.82A159 159 0 0 1 835 90"/><path fill="#83A325" d="M433 1582c9 8.38 14.51 19.99 20.31 30.69a530 530 0 0 0 17.11 28.78q3.67 5.93 7.27 11.91A516 516 0 0 0 518 1710l3.94 5a522 522 0 0 0 26.16 29.87q2.88 3.12 5.71 6.29a127 127 0 0 0 16.44 15.63c2.88 2.32 5.59 4.76 8.31 7.27A257 257 0 0 0 594 1787l2.36 1.92A365 365 0 0 0 618 1805l3.68 2.59c18.46 12.85 37.22 24.33 57.32 34.41l4.27 2.17q5.84 2.95 11.73 5.83l4.49 2.25c27.46 13.51 56.38 23.51 85.51 32.75l3.37 1.07c26.02 8.16 52.75 13.98 79.63 18.43q4.15.7 8.31 1.43c6.55 1.14 13 2.17 19.63 2.63 5.06.44 5.06.44 8.06 2.44-4.11 2.74-7.44 3.01-12.31 2.94-7.34.08-14.43 1.08-21.69 2.06a391 391 0 0 1-30.2 2.78 196 196 0 0 0-9.05.78c-4.66.43-9.21.39-13.88.34-7.99.2-15.93 1.21-23.87 2.1l.44 4.87c4.29 49.3-3.32 93.55-38.82 130.07-51.2 50.89-133.6 65.02-202.88 58.97-32.81-3.15-67.72-12.1-91.74-35.91l-3.62-2.88c-19.06-17.64-27.4-43.56-27.38-68.98 1.4-26.7 14.08-52.58 32-72.14l2.66-2.91c10.58-11.05 22.76-19.89 35.96-27.57C502 1904 502 1904 503 1902l-3-.48a451 451 0 0 1-34.31-7.4l-5.19-1.27L445 1889l-5.48-1.36a1360 1360 0 0 1-10.13-2.51A337 337 0 0 1 409 1879l-6.12-1.93A385 385 0 0 1 357 1859l-2.95-1.37A415 415 0 0 1 325 1843l-3.09-1.6c-8.11-4.22-15.47-9.1-22.91-14.4l-7.38-5.12a485 485 0 0 1-22.42-16.39 575 575 0 0 0-11.2-8.43 326 326 0 0 1-18-14.56 115 115 0 0 0-8.31-6.25c-7.87-5.58-14.97-12.35-21.69-19.25v-2c4.4-1.5 8.79-2.87 13.25-4.19l8.06-2.46 4.01-1.22c30.7-9.42 58.81-24.12 84.68-43.13l3.25-2.38c7.68-5.78 14.74-12.06 21.75-18.62l5.31-4.75c7.92-7.12 14.94-14.82 21.81-22.94 2.88-3.31 2.88-3.31 5.26-5.62 5.07-5.2 9.37-11.08 13.81-16.81 3.25-4.22 6.62-8.33 10-12.44a402 402 0 0 0 12.81-16.56c5.79-7.83 12.23-14.89 19-21.88"/><path fill="#88A826" d="m1715 1272 3.75 3.06c24.06 21.75 32.7 52.54 32.4 84.01-1.04 27.55-13.38 55.86-31.45 76.56-2.62 3.65-2.5 7.67-3.04 12.02-4.23 27.72-15.11 54.97-26.66 80.35l-2 5c1.75 2.55 1.75 2.55 4.56 5.31 6.99 7.18 13.21 14.85 19.44 22.69l2.55 3.17c35.02 44.32 91.84 134.61 80.45 193.83-3.52 8.69-7.43 13.83-15.94 17.88-7.76 2.14-13.68 1.3-21.06-1.88-11.1-8.04-12.92-18.95-15.81-31.62-4.73-20.05-10.48-39.25-18.19-58.38l-1.05-2.84c-3.39-9.12-7.45-17.84-11.7-26.6l-2.02-4.23A213 213 0 0 0 1694 1624l-3.12-4.78c-20.94-31.6-20.94-31.6-27.88-36.22l-3-5c-6.78-8.03-14.33-15.43-21.75-22.88l-2.4-2.41c-12.62-12.59-26.59-24.02-40.85-34.71v-2c-10.58 1.1-20.73 3.23-31.05 5.78-13.91 3.08-27.94 3.58-42.14 3.53l-5.17-.01c-17.37-.16-34.12-1.61-50.64-7.3l-3.88-1.31c-31.28-11.11-55.03-30.43-67.12-61.69-2.4-7.51-3.61-15.26-5-23-1.62-3.23-4.52-3.32-7.88-4.38a366 366 0 0 1-14-4.74c-13.32-4.88-13.32-4.88-19.12-4.88a249 249 0 0 0-5.09 8.82c-10.35 18.51-22.66 30.28-43.74 34.79-19.44 2.42-39.91-4.16-58.73-8.55l-7.46-1.72-15.32-3.56q-9.43-2.19-18.87-4.34l-14.12-3.23-6.68-1.52q-4.62-1.05-9.25-2.13l-5.28-1.21c-8.82-2.67-14.35-8.13-18.46-16.35-.79-11.15 1.6-20.35 6.66-30.18 2.46-5.17 4.2-10.59 6.03-16.01l1.18-3.44c1.51-4.44 2.98-8.86 4.27-13.36.86-3.01.86-3.01 2.98-7.95 2.71-6.34 4.9-12.83 7.07-19.37l1.04-3.15c1.35-4.09 2.67-8.18 3.84-12.32 1.03-3.55 2.29-6.96 3.62-10.41 4.47-11.8 8.89-23.65 12.31-35.81q1.92-5.53 4-11l1.16-3.13c2.91-7.48 5.91-13.43 12.96-17.81 9.64-2.64 16.1-1.23 25.24 2.36l2.76 1.07a1634 1634 0 0 1 11.9 4.71q11.03 4.37 22.04 8.8l6.43 2.58 12.57 5.04q16.67 6.7 33.38 13.32l6.56 2.62 3.32 1.31c15.67 6.29 29.35 13.93 35.3 30.71 1.44 5.67 1.71 10.46 1.63 16.3l-.05 5.49c-.2 4.63-.2 4.63-1.2 8.63-.46 6.54-.46 6.54 3 10 4.95 1.93 9.97 3.57 15.01 5.26a97 97 0 0 1 10.93 4.55l4.06 1.19c4.06-4 6.62-8.64 9.31-13.62 11.74-21.17 27.12-40.76 45.69-56.38l5.44-5.06A99 99 0 0 1 1481 1273l3.31-2.16c29.73-19.17 63.04-34.12 98.69-36.84l3.51-.33c46.38-3.95 92.73 7.93 128.49 38.33"/><path fill="#89A927" d="M900.24 1231.88c5.25 4.03 10 8.54 14.76 13.12l3.69 3.3c11.67 13 18.99 29.42 24.3 45.89l1.3 3.9c3.8 11.8 7.04 23.72 9.95 35.77q1.11 4.58 2.27 9.15c2.59 10.74 4.3 20.95 4.49 31.99l.15 3.53c.7 24.72-7.9 44.96-25.71 61.85-11.43 8.72-25.2 10.07-39.06 11.68l-4.31.52L880 1454l-5.24.63a719 719 0 0 1-26.62 2.48 873 873 0 0 0-27.95 2.89c-79.54 9.03-79.54 9.03-102.2-11-8.98-8.62-15.02-18.8-19.5-30.37-.4-.77-.4-.77-2.5-4.63-7.27-1.2-13.42 1.7-20.05 4.38l-6.3 2.46-2.94 1.17c-2.7.99-2.7.99-6.93 1.97L657 1425c-.25 5-.25 5-.07 8.26.46 24.4-11.38 43.97-27.93 60.74l-2.81 2.85c-31.45 30.34-79.58 41.57-122.17 37.7q-4.56-.53-9.1-1.11c-3.92-.44-3.92-.44-9.73-.44-4.2 0-4.2 0-9.2-2q-2.92-.7-5.85-1.3c-7.65-1.72-14.94-4.21-22.33-6.82l-3.96-1.38c-9.5-3.32-9.5-3.32-11.85-4.5-7.68 0-8.57 1.97-13.7 7.44-7.04 7.48-7.04 7.48-10.3 8.56-4.3-5.67-7.21-11.5-10-18l-2-3.31a50 50 0 0 1-3.94-9.88c-1.51-4.73-2.6-7.26-7.06-9.81-4.72-3.05-9.2-6.36-13.7-9.75a469 469 0 0 0-14-10.25 125 125 0 0 1-25.2-24.33 169 169 0 0 0-5-6.01c-26.33-31.04-41.55-71.57-36.1-112.47 5.97-31.24 23.58-58.77 51.64-74.7q4.09-2.1 8.24-4.05l2.98-1.42C375.5 1239 375.5 1239 386 1239l2-5 5-2c3 2 3 2 4 7 4.03 1.34 7.75 1.24 12 1.38 35.63 1.74 69.59 13.1 101 29.62l5.3 2.64c13.16 6.57 25.23 14.1 37.22 22.6 3.62 2.56 7.3 5.03 10.98 7.5A279 279 0 0 1 595 1328l3 2.72c8.55 7.77 16.64 15.6 23.83 24.67l2.17 2.6 2.33 2.9c2.67 2.1 2.67 2.1 5.89 2.15 4.58-1.26 8.92-2.85 13.34-4.6a1129 1129 0 0 1 29.27-10.87C679 1346 679 1346 680 1345q.23-3.62.38-7.25c1.09-18.11 6.5-34.35 21.36-45.88 17.3-11.82 37.52-19.58 56.8-27.5A271 271 0 0 0 777 1256c5.02-2.2 10.07-4.32 15.13-6.44 8.76-3.7 17.5-7.4 26.22-11.2l4-1.74 7.43-3.27c23.25-10.17 47.77-16.87 70.46-1.47"/><path fill="#FBFBFB" d="M1252.06 618.81c57.1 1.8 110.4 26.43 146.4 71.53 18.92 26.32 32.6 55.7 38.54 87.66l.53 2.8c1.74 10.34 1.84 20.65 1.84 31.13q.01 4.55.08 9.11c.14 25.41-4.55 53.23-16.45 75.96l-3 1-.26-4.69c-1.55-24.18-7.2-44.98-26.82-60.79-18.65-13.45-39.27-18.5-62.25-15.02a83 83 0 0 0-7.67 2.5l-3.05 1c-10.92 3.77-20.99 9.55-28.95 18l-2.25 2.36c-18.3 19.97-24.18 42.88-21.07 69.51 6.34 24.73 19.38 41.3 42.51 52.51 20.42 8.66 43.5 7.15 63.56-2.19L1378 959h3c-4.97 12.42-18.4 21.32-29 29l-3.19 2.45c-22.06 16.57-48.25 26.8-74.8 33.55l-5.07 1.32c-13.5 2.93-26.92 3.07-40.69 3.11l-5.75.04c-47.5-.3-92.46-19.56-126.5-52.47l-3.2-3.02c-40.03-38.55-57.64-95.17-54.34-149.79 3.16-45.27 21.07-89.59 50.54-124.19l1.9-2.23c41.53-47.4 98.01-75.62 161.16-77.96M876.4 709.17c20.5 9 39.28 20.41 55.6 35.83l4 3.37c5.05 4.58 9.55 9.47 14 14.63l2.66 3.08c34.29 41.6 46.28 99.07 37.56 151.6-3.08 14.85-7.7 29.61-14.22 43.32h-1l.1-5.13c.42-27.78-4.1-49.92-25.04-69.68-17.43-15-39.7-20.36-62.3-17.69-25.77 4.34-45.31 19.16-58.48 41.4-10.77 20.03-13.23 43.58-5.28 65.1 3.75 8.68 7.92 16.7 14 24l2.3 2.93c13.78 15.66 35.95 22.43 56.13 22.22 18.08-.75 33.76-7.5 47.99-18.38C947 1004 947 1004 952 1002c-4.08 12.24-15.35 21.84-24 31l-3.37 3.62c-5.58 5.2-11.6 9.75-17.63 14.38l-3.3 2.66c-41.94 32.78-101.57 45.7-153.56 35.37C698.82 1077.6 653.22 1049 626 1003l-2.37-3.99c-28.57-49.57-32.14-109.55-13.16-163.22A207 207 0 0 1 642 782l2.39-3.24c3.04-3.2 4.78-3.83 9.05-4.76l4.05-.96 4.5-1.04c55-13.8 104.72-39.16 150.1-72.88 14.54-10.57 49.09 3.93 64.3 10.05"/><path fill="#88A826" d="m1316 1860 .47 3.23q1.09 7.23 2.22 14.46l.74 5.07.77 4.88.68 4.49c1.27 4.38 2.52 6.12 6.12 8.87 3.74 1.06 7.32 1.89 11.12 2.62 29.79 6.45 58.78 20.28 80.88 41.38l4 3.62c17.32 18.95 25.88 41.81 24 67.38a91.5 91.5 0 0 1-28 54l-2.38 2.44c-43.38 42.35-107.73 48.68-165.39 42.96a385 385 0 0 1-16.23-2.4l-5.4-.84c-34.38-5.71-72.07-17.05-99.6-39.16l-2.61-2c-11.62-9.13-22.37-19.54-30.39-32l-2.23-3.45c-22.56-36.18-30.76-84.37-24.77-126.55 3.34-3.34 8.13-2.95 12.65-3.46l3.27-.38q5.04-.6 10.08-1.16l5.9-.67 11.6-1.32c19.47-2.23 38.81-4.84 58.12-8.13l5.8-.99a352 352 0 0 0 28.2-6.02 186 186 0 0 1 12.57-2.68c24.37-4.79 48.39-11.21 72.16-18.41l3.71-1.12q3.55-1.07 7.09-2.17c5.23-1.59 9.33-2.49 14.85-2.49m-813 42c3.26-.24 3.26-.24 7.61-.23l4.72.01 4.98.03h4.95c12.18.05 12.18.05 16.74 1.19q3.38.3 6.75.5c5.12.34 10.17.8 15.25 1.5l3.58.41c4.97.66 9.87 1.55 14.8 2.47 32.89 6.04 65.72 10.83 99.19 11.78 4.31.13 8.24.29 12.43 1.34q4.47.15 8.96.16l11.71.04 6.25.02 13.1.02q8.39.01 16.76.06 6.46.03 12.91.02l6.18.03 13.63.02c4.69-.39 8.15-1.64 12.5-3.37 10.18-.55 10.18-.55 14 2-3.47 1.16-6.54 1.33-10.19 1.56l-3.85.26-2.96.18.44 4.87c4.29 49.3-3.32 93.55-38.82 130.07-51.2 50.89-133.6 65.02-202.88 58.97-32.81-3.15-67.72-12.1-91.74-35.91l-3.62-2.88c-19.06-17.64-27.4-43.56-27.38-68.98 1.4-26.7 14.08-52.58 32-72.14l2.66-2.91c10.58-11.05 22.76-19.89 35.96-27.57C502 1904 502 1904 503 1902"/><path fill="#131212" d="M900.24 1231.88c5.25 4.03 10 8.54 14.76 13.12l3.69 3.3c11.67 13 18.99 29.42 24.3 45.89l1.3 3.9c3.8 11.8 7.04 23.72 9.95 35.77q1.11 4.58 2.27 9.15c2.59 10.74 4.3 20.95 4.49 31.99l.15 3.53c.7 24.72-7.9 44.96-25.71 61.85-11.43 8.72-25.2 10.07-39.06 11.68l-4.31.52L880 1454l-5.24.63a719 719 0 0 1-26.62 2.48 873 873 0 0 0-27.95 2.89c-79.54 9.03-79.54 9.03-102.2-11-8.98-8.62-15.02-18.8-19.5-30.37q-1.21-2.29-2.5-4.63c-7.3-1.21-13.42 1.75-20.05 4.44-14.27 5.72-14.27 5.72-18.94 5.56a72 72 0 0 1-3.7-12.81c-3.47-15.05-10.04-27.8-19.24-40.13C632 1368 632 1368 632 1364c3.17-1.8 3.17-1.8 7.75-3.62q2.53-1.03 5.17-2.08a876 876 0 0 1 25-9.06c8.99-3.14 8.99-3.14 10.08-4.24q.23-3.62.38-7.25c1.09-18.11 6.5-34.35 21.36-45.88 17.3-11.82 37.52-19.58 56.8-27.5A271 271 0 0 0 777 1256c5.02-2.2 10.07-4.32 15.13-6.44 8.76-3.7 17.5-7.4 26.22-11.2l4-1.74 7.43-3.27c23.25-10.17 47.77-16.87 70.46-1.47"/><path fill="#83A325" d="M1549.01 1002.74c25.92 25.29 39.1 56.77 37 93.26-3.9 29.64-14.97 56.38-36 78l-2.68 2.89c-28.8 30.33-68.9 40.07-109.33 38.1a105 105 0 0 1-17-3l-4.9-1.24c-19.08-5.3-38.52-13.83-51.1-29.75l-3.38-2.85c-23.37-20.31-33.1-54.26-32.83-84.24 1.6-37.77 20.13-72.13 49.21-95.91 13.41-9.28 28.26-17.52 44-22l4.81-1.4c42.23-10.81 89.87-1.98 122.2 28.14"/><path fill="#131212" d="m1238.36 1237.42 2.75 1.07 8.9 3.5 3.01 1.2q11.03 4.38 22.04 8.8l6.43 2.59 12.56 5.04q16.67 6.7 33.38 13.32l6.57 2.62 3.32 1.3c15.67 6.3 29.35 13.94 35.3 30.72 1.44 5.67 1.71 10.47 1.63 16.3l-.05 5.49c-.2 4.63-.2 4.63-1.2 8.63-.46 6.54-.46 6.54 3 10q4.74 1.8 9.56 3.38L1396 1355l3.61 1.25c2.76 1.13 2.76 1.13 6.4 3.75-.87 6.26-3 11.84-5.33 17.69a163 163 0 0 0-10.03 47.05l-.65 3.26c-4.6 1.15-5.8.6-10.13-1.06a635 635 0 0 0-17.44-6.25l-4.5-1.55C1354 1418 1354 1418 1349 1418a258 258 0 0 0-5.1 8.82c-10.34 18.5-22.65 30.28-43.74 34.79-19.43 2.42-39.9-4.15-58.73-8.55l-7.45-1.72-15.32-3.56a3973 3973 0 0 0-18.88-4.33l-14.12-3.24-6.67-1.52q-4.63-1.05-9.25-2.13l-5.29-1.21c-8.8-2.67-14.34-8.13-18.45-16.35-.79-11.15 1.6-20.34 6.65-30.17 2.46-5.17 4.21-10.6 6.03-16.02l1.2-3.44a269 269 0 0 0 4.25-13.36c.87-3.01.87-3.01 3-7.95a246 246 0 0 0 7.05-19.37l1.05-3.15c1.35-4.1 2.66-8.18 3.84-12.32a133 133 0 0 1 3.61-10.41c4.48-11.8 8.9-23.65 12.32-35.81 1.3-3.7 2.61-7.34 4-11 .2-.51.2-.51 1.16-3.13 2.91-7.48 5.91-13.43 12.96-17.81 9.64-2.64 16.1-1.22 25.24 2.36"/><path fill="#83A325" d="M716 1112c20.75 23.85 25.09 56.99 21.35 87.25-2.14 9.79-6.03 18.75-10.35 27.75l-1.47 3.25c-9.1 19.44-25.77 36.5-44.53 46.75l-3.42 1.91c-29.13 15.48-64.8 17.89-95.84 6.65-16.44-6.86-32.63-16.37-43.74-30.56l-3.44-3.62c-21.75-26.72-25.72-60.51-19.56-93.38a106.6 106.6 0 0 1 24-45l2.33-2.76c6.17-7.15 13-12.77 20.67-18.24l2.46-1.86c13.17-9.28 30.67-15.02 46.54-17.14l5-.69c40.11-2.5 72.19 11.46 100 39.69"/><path fill="#131212" d="M955.88 890.5c16.64 18.65 21.7 39.88 20.12 64.5-1.2 7.86-4.25 14.42-7.68 21.5l-1.54 3.26c-10.99 22.81-31.44 36.98-55.57 43.46-22.06 5.37-44.75-.2-63.06-13.25a76.6 76.6 0 0 1-29.42-55.99c-.47-26.09 7.88-48.45 26.95-66.73 33.76-28.74 78.14-25.71 110.2 3.25M432 1516c4.08 1.33 8.06 2.73 12.06 4.25l6.76 2.49 3.25 1.2c6.91 2.5 13.85 4.63 21.05 6.12 3.88.94 3.88.94 6.88 3.94-10.97 10.11-10.97 10.11-16.12 14.56a234 234 0 0 0-11.56 11.16c-2.32 2.28-2.32 2.28-5.51 4.9-4.49 3.8-8.15 8.3-11.81 12.88a220 220 0 0 1-11.1 12.75c-5.32 5.72-9.82 11.77-14.3 18.17-3.39 4.66-7.1 8.99-10.87 13.35-4.44 5.25-8.57 10.75-12.73 16.23l-7 9-2.12 2.75A96 96 0 0 1 372 1657a215 215 0 0 0-11.44 11.94A197 197 0 0 1 340 1689l-2.76 2.42c-12.07 10.47-24.81 20.03-38.85 27.7a235 235 0 0 0-10.33 6.19c-16.49 9.81-33.16 16.69-51.37 22.63l-5.05 1.64A316 316 0 0 1 199 1758l-5.81 1.19c-22.33 3.49-22.33 3.49-32.57-2.94-6.56-5.88-9.24-11.4-9.93-20.19.69-9.05 4.88-16.53 12.01-22.2 3.88-2.18 6.96-2.71 11.36-3.3A263.6 263.6 0 0 0 303 1653l2.87-2.28c4.95-3.94 9.18-7.75 13.13-12.72l2.75-2.19c3.79-3.28 6.7-6.93 9.82-10.84 3.14-3.84 6.49-7.45 9.88-11.07 5.47-6.22 10.35-12.94 15.35-19.55a507 507 0 0 1 18.04-22.79q3.18-3.79 6.22-7.68c3.46-4.37 7.16-8.46 10.92-12.57 2.02-2.31 2.02-2.31 4.58-6 3.01-4.09 6.57-7.04 10.44-10.31a259 259 0 0 0 8.34-8.55l3.6-3.76 3.59-3.8C426 1516 426 1516 432 1516m963.32-682.33c18.6 16.2 25.76 37.97 25.88 62.22-.56 8.45-4.29 15.76-8.2 23.1l-2.16 4.09c-5.09 8.96-11.19 17.07-17.84 24.92l-2.36 2.85c-12.8 14.23-35.5 19.08-54.08 19.7-21.65-1-41.32-11.44-55.4-27.65a78.6 78.6 0 0 1-13.54-65.27A89 89 0 0 1 1283 847q.95-1.35 1.95-2.71c26.38-34.9 77.54-36.7 110.37-10.62M1647 1495a71 71 0 0 1 7.25 6.56c8.32 8.06 8.32 8.06 12.81 11.38 3.94 3.06 3.94 3.06 6.88 6.5a48 48 0 0 0 8 7.44c4.92 3.82 8.31 8.12 12.06 13.12q2.63 2.9 5.31 5.75a200 200 0 0 1 13.23 15.98q2.41 3.23 4.92 6.38c6.79 8.6 12.72 17.62 18.54 26.89l2.65 4.17c24.87 39.83 65.67 110.39 56.35 158.83-3.52 8.69-7.43 13.83-15.94 17.88-7.76 2.14-13.68 1.3-21.06-1.88-11.1-8.04-12.92-18.95-15.81-31.62-4.73-20.05-10.48-39.25-18.19-58.38l-1.05-2.84c-3.39-9.12-7.45-17.84-11.7-26.6l-2.02-4.23A213 213 0 0 0 1694 1624l-3.12-4.78c-20.94-31.6-20.94-31.6-27.88-36.22l-3-5c-6.78-8.03-14.33-15.43-21.75-22.88l-2.4-2.41c-12.62-12.59-26.59-24.02-40.85-34.71l1-4c3.45-1.57 3.45-1.57 8.12-3.12a324 324 0 0 0 23.32-9.19l2.99-1.31c12.21-5.38 12.21-5.38 16.57-5.38m-498.33-407.3c2.33 2.3 2.33 2.3 4.84 4.22 2.89 2.41 4.94 5 7.18 8.01l2.32 3.1c4.27 6.37 4.99 12.52 3.99 19.97-3.07 9.35-7.87 15-16.81 19.37-9.46 1.86-15.97.62-24.2-4.37-2.68-2.32-2.68-2.32-5-5-10.94-12.72-10.94-12.72-19-13-4.8 1.92-6.1 2.8-9.3 6.5q-1.16 1.35-2.37 2.71-3.2 3.87-6.26 7.85c-11.72 14.76-28.2 24.98-47.32 26.21-18.94.4-34.13-4.52-50-14.59-6.4-3.62-9.98-4.3-17.11-2.68-5.95 3.85-8.57 8.5-12.3 14.41-5.21 8.02-11.21 11.05-20.33 13.6-8.86.11-15.91-3.2-22.44-9.14-4.27-6.46-5.82-12.22-5.06-19.94 6.28-20.66 22.6-37.7 42.12-46.58 23.46-9.23 43.23-2.9 64.62 7.83 13.65 6.78 13.65 6.78 21.76 4.82 4.59-2.66 7.64-5.63 10.94-9.75l2.62-3.22 2.44-3.03c25.19-30.06 65.33-36.32 94.67-7.3"/><path fill="#FCFCFC" d="M887.38 1243.9c30.28 24.32 37.45 61.03 46.37 96.85l1.5 5.96q.69 2.82 1.42 5.7l1.28 5.16c1.92 8.13 2.26 15.66 2.3 23.99l.06 3.64c.08 18.28-5.06 34.72-19.3 46.8-8.45 4.98-16.84 3.33-25.73.4-21.87-9.3-33.83-32.63-40.72-54.05a638 638 0 0 1-7.7-29.8q-1.25-5.1-2.53-10.2c-7.14-28.5-14.49-63.95 3.6-90.15 10.87-13.38 25.9-13.85 39.45-4.3M1399 446c7.79 1.95 10.49 12.21 14 19l1.75 3.37c46.36 89.77 46.36 89.77 32 126.87-6.11 13.09-15 21.02-28.5 26.2-15.82 2.09-28.95.38-41.25-10.44-16.6-16.31-16.07-37.3-15-59 .73-6.57 2.15-12.66 4-19l.86-3.05c17.89-62.57 17.89-62.57 32.14-83.95m-264.04 804.3 4.55 1.33q7.16 2.1 14.3 4.24l9.68 2.84c18.05 5.31 18.05 5.31 24.5 7.3.58.13.58.13 3.43.9q1.27.52 2.58 1.1c.5 8.5-3.56 16.98-6.43 24.86l-1.53 4.28c-3.75 10.41-3.75 10.41-6.04 13.85-7.34-.16-14.34-2.75-21.3-4.9l-3.85-1.18-8.05-2.47-12.25-3.75-7.85-2.4-3.66-1.13c-25.18-7.78-25.18-7.78-31.04-17.49-2.5-9.24-1-15.6 4-23.68 11.99-11.99 24.38-8.08 38.96-3.7m-31.46 83.7 3.02.95c8.27 2.61 16.51 5.35 24.74 8.12a995 995 0 0 0 23.94 7.7c2.97.96 5.9 2.07 8.8 3.23.25 8.12-3.11 15.73-5.88 23.25l-1.35 3.8c-1.95 5.38-3.81 10.01-6.77 14.95-6.1-.01-11.63-1.99-17.38-3.88l-5.45-1.78-5.73-1.9-5.85-1.93-11.44-3.8q-6.42-2.13-12.85-4.17l-6.05-1.98-5.05-1.62c-6.56-3.03-11.92-7.96-14.2-14.94-.93-9.72.97-16.79 7.81-23.94 10.26-6.64 18.4-5.63 29.69-2.06"/><path fill="#88A826" d="m669 1083-.56 3.88.56 4.12c4.25 1.38 4.25 1.38 9 2l4 2q3.33-.37 6.62-.94c7.36-.67 10.43 1.29 15.59 6.35 2.02 2.93 2.48 5.07 2.79 8.59l-3 1-1 5c3 3 3 3 5.51 5.15 3.16 3.61 4.04 6.8 5.3 11.41l1.27 4.51c.92 3.93.92 3.93.92 7.93l5 2c2.19 3 2.19 3 4 6l2 2v3c-5.52-.44-9.82-.93-15-3 2 5 2 5 6 7l1 2 5 3c3.06 2.63 4.76 4.26 6 8.12 1 2.88 1 2.88 6 5.88l-1 3c-5.07.41-9.98-.3-15-1l-.31 2.94c-.77 4.56-2.15 8.71-3.69 13.06-5-2-5-2-8-5l-3 2c-6 0-6 0-8-2l-.38-3.69c-.62-4.31-.62-4.31-2.74-7.87-2.23-4.09-1.97-6.01-.88-10.44h-2c-2.21-4.43-.91-8.28.56-12.69 1.7-6.26 1.63-9.97.44-16.31l-4-2 1-3h2v-4h-6c-3-3-3-3-4.5-7.56-1.5-4.44-1.5-4.44-4.5-6.44l-5-.38c-5-.62-5-.62-8-4.62.26-3.04.52-6.07.87-9.1.17-3.7-1.03-5.74-2.87-8.9-.82-6.58.45-13 8-13"/><path fill="#BFE241" d="M1717 1439c.36 7.46-.95 14.04-2.88 21.19l-.94 3.53c-13.56 49.85-13.56 49.85-25.18 67.28-4.99-1.25-7.01-3.44-10.75-6.94l-3.55-3.27c-2.7-2.79-2.7-2.79-2.7-4.79l-4-2a166 166 0 0 1-5.75-5.19c-3.6-3.36-7.22-6.65-11-9.81-3.25-3-3.25-3-3.25-6q3.92-2.62 8-5l9-6 4.46-2.93c10.19-6.71 20-13.3 28.54-22.07l8-7a262 262 0 0 0 5-5c5.89-6 5.89-6 7-6"/><path fill="#88A826" d="M403 754c5 2 5 2 6.19 5.31L410 763l2 5 .5 4.75.5 4.25 2 1c.25 2.61.36 5.23.41 7.86l.12 4.98.09 5.35.12 5.37q.14 7.71.26 15.44l.07 3.99c.23 13.46.23 13.46-.07 18.01l-2 1-.69 3.06L412 846c-3.62.38-3.62.38-7 0v-4.44l-1-4.56c-3.94-.94-3.94-.94-8-1-4.62-4.62-3.12-15.55-2.81-21.88.47-5.25 1.83-8.7 4.81-13.12v-3c-3-2.19-3-2.19-6-4l2.56-2.19L397 789c-1-5-1-5-4-8l.19-3.75c-.25-5.58-2.59-7.13-6.19-11.25-.88-4.44-.88-4.44-1-8l3.31-.88c10.88-3.31 10.88-3.31 13.69-3.12m1069 419q3.38.05 6.75.19l3.8.1c4.28.88 4.87 2.35 7.45 5.71l5.5.31c5.5.69 5.5.69 8.12 4.38A48 48 0 0 1 1506 1194h6l4 3v3c-13.71 8.65-34.16 15.64-50.38 13.19-3.62-2.19-3.62-2.19-4.43-6.57.83-4.72 1.45-6.35 4.81-9.62l4-4c-1-5-1-5-4-7q-2.99-1.05-6-2l2-4c3.06-.66 5.87-1 9-1z"/><path fill="#83A325" d="M1669 1396c4 1 4 1 6 5l3 2c-.23 3.62-.4 5.4-3 8-.31 3.56-.31 3.56 0 7 3.81 1.27 5.39.65 9-1l1-4c5-3 5-3 8-2 0 5 0 5-2 7-.99 5.11-1.37 7.25 1 12q.59 4 1 8l4.38-.62c4.62-.38 4.62-.38 6.62 1.62 1.3 3.89 2 6.88 2 11a77 77 0 0 1-11 10l-3-1v-2c-3.57-1.61-6.13-2-10.06-1.94-5.86-.09-9.69-3.3-13.94-7.06v-2l5-2q2.57-2.43 5-5l4-3v-5c-3 0-3 0-7 4-5 0-5 0-7-2 .12-3 .12-3 1-6l4-2 4 2-2-4-4 1c-4.62-1.12-4.62-1.12-9-3-2.38-5.94-1.46-7.93 0-14 .07-2.67.1-5.34 0-8l2.94-.38 3.06-.62z"/><path fill="#89A927" d="M552 1233c5.51 1.15 8.34 3.83 12 8l1 3 4.25 1.31c5.13 1.82 6.82 3.21 9.75 7.69 1.51 6.06 2.17 11.67-.69 17.38-4.62 5.25-5.97 6.62-13.31 6.62-9.76-4.62-24.48-14.45-28-25 2.75-5.51 6.92-8.62 12-12q1.1-2.97 2-6z"/><path fill="#88A826" d="M408.06 665.33c4.44 1.02 8.5.38 12.94-.33l-2 28-3-1-5 3h-2l-.25 4.38L408 704l-4 2c-3.84-3.83-5.85-6.75-6.5-12.2l.5-3.8 5-2c.81-3.62.81-3.62 1-7l-5 1-1 5-11-2c1.25-7.38 1.25-7.38 5.12-10.56C395 672 395 672 395.06 668.3L395 665c5.68-2.27 7.44-1.41 13.06.33"/><path fill="#89A927" d="M694 120c-4 3-4 3-8.75 4.88L681 127v5l-1 5v2l4.62-.19c7.9.28 7.9.28 11.38 3.19 0 3.19 0 3.19-1 7l-1 4.19-1 3.81-1 4c-3.81 3.31-3.81 3.31-8 6-5.02-1.26-5.51-2.6-8-7l-.81-3.19c-1.7-4.02-4.25-4.26-8.19-5.81-2.27-4.54-2.39-6.99-2-12 3.08-5.13 3.94-5.69 9-8l1-2-5 2q-4.5.13-9 0c3.65-2.74 6-3.88 10.23-5.3l3.62-1.21 3.77-1.24 3.8-1.29 3.62-1.19 3.32-1.1C692 119 692 119 694 120"/><path fill="#111011" d="M907 1358c2.43 4.04 3.64 6.58 4.82 10.96l.93 3.43.94 3.55.97 3.53c3.65 13.65 3.65 13.65.34 18.41-3.96 2.8-6.24 2.8-11 2.12-8.3-8.3-10.91-25.39-12-37 3.22-6.43 8.53-8.53 15-5"/><path fill="#131212" d="M887 1292c6.17 4.31 7.08 10.97 8.81 17.88l.95 3.51c3.01 11.59 3.01 11.59 2.24 16.61-4.87 4.87-6.25 5.47-13 5-8.17-8.17-11.73-27.71-11-39 3.48-4.21 6.69-4.85 12-4"/><path fill="#89A927" d="m1567 1080-1 5c-4 1-4 1-8 0l-2 1c1 5 1 5 3 9-1 5-1 5-3 7h-6l-2-4-2-1 2 5c-1 4-1 4-3 5h-5l-1 4 3 1.38 3 1.62c.12 3.06.12 3.06-1 6l-4 2c-4-4-4-4-4.38-7.19l-.62-2.81-3-.44-3-.56c-1.12-3.38-1.12-3.38-1-7 4-3 4-3 7-4l.38-3.25c.76-4.61 2.02-5.87 5.62-8.75q2.99-1.53 6-3l4-4c5.91-1.43 10.01-2.2 16-1"/><path fill="#83A325" d="M1594 1234c-2 4-2 4-5.31 4.88-5.38 3.09-5.87 7.29-7.55 13.07L1580 1255c-3 1-3 1-5 0-4.9-.28-9.81-.45-14.72-.62-4.28-.38-4.28-.38-6.28-2.38q-.13-4 0-8h-10v-2c3.5-1.13 6.94-2.1 10.5-3l3.17-.81c12.08-3 23.88-4.54 36.33-4.19"/><path fill="#BFE241" d="M392 1498c6.1.42 10.82 3.4 16 6.38 9.79 5.53 9.79 5.53 13.5 7.22 2.5 1.4 2.5 1.4 4.5 5.4-2.98 3.64-2.98 3.64-7.19 7.69l-4.17 4.07C411 1532 411 1532 408 1533c-4.3-5.67-7.21-11.49-10-18l-2.12-3.44c-2.33-4.42-3.07-8.66-3.88-13.56"/><path fill="#89A927" d="m1409 986 2 2 3.5.5c3.5.5 3.5.5 5.5 2.5-1 4-1 4-3 8l4 4c1 4 1 4-1.06 7.62-3.1 3.57-4.46 4.35-8.94 5.38l-5 2c-2.64-1.47-4.86-2.86-7-5v-5c4-1 4-1 8 0 1.5-5.46.62-9.02-2-14-2.81-1.31-2.81-1.31-6-1q-3.09 2.4-6 5l-5 1-4-4c16.45-13.1 16.45-13.1 25-9"/><path fill="#83A325" d="M630.06 1368.75c9.8 3.11 14.26 16.31 18.57 24.84C650 1397 650 1397 649 1400c-3.75 2.5-5.57 2.62-10 2-4-4.72-4-4.72-4-8l-4-2c-4.86-4.64-5.6-7.67-5.38-14.31l.1-4.3c.35-4.31.35-4.31 4.34-4.64"/><path fill="#89A927" d="M526 1734h5c1.09 4.04 2 7.79 2 12h2c3 5 3 5 3 9l-3.44 2.19c-4.68 3.7-4.14 6.07-4.56 11.81-4 1-4 1-6.75-.44-3.09-3.52-2.25-5.98-2.25-10.56-2.31-2.81-2.31-2.81-5-5-3-3-3-3-3-5l3.69-2.06c4.99-3.4 6.44-6.74 9.31-11.94M835 90c-3.13 2.09-5.8 3.05-9.38 4.19l-3.39 1.1C819 96 819 96 814 95q-4.51.95-9 2-4.87.54-9.75.94c-6.68.63-13 1.5-19.5 3.15-5.13 1.24-10.32 2.22-15.5 3.22a521 521 0 0 0-30.01 6.81c-5.19 1.3-9.89 2.2-15.24 1.88 2.67-2.67 4.97-2.98 8.61-3.95l4.18-1.12 4.52-1.18 4.67-1.22a689 689 0 0 1 63.33-12.91l4.89-.79A159 159 0 0 1 835 90m505 957c3.38.75 3.38.75 7 2 2 4 2 4 1 9l-1 1c-.44 3.38-.44 3.38 0 7 2.94 1.88 2.94 1.88 6 3 1 1 1 1 1 7-1 2-1 2-4 3l-2 3-4-2-1-5-3.62-1-3.38-2c-.24-3.48.13-6.62.63-10.07.37-2.93.37-2.93-.63-4.93q1.9-5.04 4-10"/><path fill="#08070B" d="M902 1234a106 106 0 0 1 20 18l-1 2-5-2c-2.62 2.75-2.62 2.75-5 6l-3 2v6a157 157 0 0 1-12-13l1-2h2l.19-3.25c.95-4.39 2.11-5.38 5.81-7.75l-3-4z"/><path fill="#88A826" d="M593 171c3 1 3 1 5 4l5 2c3.3 2.92 5.01 5.02 7 9l3 1v2c-4.61.92-8.94 1.38-13.62 1.69l-4.54.32C591 191 591 191 588 189c-1.66-5.08-2.06-7.68-1-13 2.88-2.88 2.88-2.88 6-5m-24 68h4l1.62 5.25c1.72 5.46 1.9 5.54 7.63 8L587 254c1.22 5.26.27 6.64-3 11-3.29.46-3.29.46-7.06.38l-3.79-.04C570 265 570 265 568 263a61 61 0 0 1 1-15 536 536 0 0 0-1-7z"/><path fill="#08070B" d="M893 1306c2.17 3.25 3.04 6 4.12 9.75l1.08 3.61c.83 3.77 1.23 6.8.8 10.64-4.87 4.87-6.25 5.47-13 5-3.12-3.12-3.85-4.78-5.19-8.88l-1.04-3.11C879 1320 879 1320 879 1315l2.06 2.56c2.94 2.44 2.94 2.44 6.63 2.44 3.31-1 3.31-1 5.31-4q.13-5 0-10"/><path fill="#89A927" d="m583 1082-.69 2.81-.31 3.19 3 3c-.12 3.06-.12 3.06-1 6-3 2-3 2-6.19 1.12L575 1097v6c-3.1 1.55-5.6 1.37-9 1-1.14-5.69-.13-9.36 1-15 4.31-2.69 4.31-2.69 9-5 4-2 4-2 7-2M406 726c6.62.75 6.62.75 10 3 .29 4.79.29 4.79.19 10.62l-.08 5.86L416 750h-1v-6l-2.81 2.06C409 748 409 748 406 747v-2l-5-2-4-2v-2l3.38-2.12c4.31-3.43 4.81-5.54 5.62-10.88m962 434c2.49 4.98 1.73 7.56 1 13v6l-4 2a46 46 0 0 1-13-14c3.48-8.71 7.4-8.65 16-7m63 39q2.52 1.97 5 4h4c.6 6.2.6 6.2-1.88 9.5-7.36 3.54-15.8-.1-23.12-2.5 2.23-4.46 3.9-5.4 8-8 3-3 3-3 8-3M328 733q3.53 1.43 7 3v-2l8-1c1.77 5.11 2.3 8.72 1 14l-3 4c-4.23.19-6.23-1.15-9.81-3.44-4.07-4.54-4.19-7.57-4.19-13.56zm66-27 4-1v5l-5-1v5l4 1c2.2 2.2 1.08 7.14 1 10l-1 4c-7.42.58-7.42.58-9-1-.23-5.19-.35-8.3 2-13h-7c.6-7.95 3.06-10.65 11-9m267.19 563.94c2.8 1.06 2.8 1.06 5.8 3.06.5 3.44.5 3.44 0 7-5.65 3.4-11.25 6.7-18 7-3-3-3-3-4-8 3-1 3-1 7-2l2.89-3.62c3.12-3.38 3.12-3.38 6.3-3.44M700 1246c3.31 2.25 3.31 2.25 6 5 0 6 0 6-2.19 9l-2.81 2c-6.24-2.49-9.33-5.18-14-10 2.91-7.28 5.62-8.95 13-6M336 400c2.52 7.57-5.2 18.69-9 25l-6 9q-3.4 5.75-6.75 11.55A42 42 0 0 1 307 454c4.15-16.61 15.59-33.79 25-48l2.44-3.69z"/><path fill="#88A826" d="M677 1214c4 1 4 1 5 3l4.31-.44 4.69.44c2.64 4.14 3.87 7.29 4.25 12.19-1.93 4.35-5.37 6.22-9.25 8.81l-1-10h-3l-.25-4.94-.75-5.06-4-1z"/><path fill="#83A325" d="M473.97 1519.72c4.05.37 6.19 1.36 9.03 4.28.69 3.18.69 3.18 1 6l3 1c-4.61 3.07-9.01.81-14.12-.38l-3.14-.7C467 1529 467 1529 464 1526c0-8.05 2.5-6.36 9.97-6.28M1392 1436c4.7 1.17 6.66 2.51 10 6 .75 4 .75 4 1 8l2 5-4 4-1 3h-2c-3.42-8.54-6.39-16.69-6-26"/><path fill="#89A927" d="M1364 1011c4 1 4 1 6 5-1.24 6.22-3.48 8.62-8 13-3.75 1.12-3.75 1.12-7 1l-3-2c1.88-4.7 3.71-7.5 6.88-11.38l2.61-3.27zm-836 193 2 1c.27 2.91.27 2.91.25 6.5l.02 3.59-.27 2.91-2 1-1.94 4.56L524 1228h-3c-2.48-5.31-4-9.11-4-15 3-2 3-2 8-3 1.81-3.06 1.81-3.06 3-6"/><path fill="#08070B" d="m844 1252 2 1-.99 2.46c-8.47 22.23-7.78 42.37-4.01 65.54-3-1-3-1-5-5-1.4-6.87-2.23-12.09-1-19l-.01-8.78c.03-11.3.6-27.81 9.01-36.22"/><path fill="#89A927" d="M396.3 1510.18c2.14 3.55 3.7 6.62 3.7 10.82-3.5.94-3.5.94-8 1-4.31-3.25-4.31-3.25-8-7l-3-3v-3q3.13-.44 6.25-.81l3.52-.46c3.23.27 3.23.27 5.53 2.45M377 1866c6.38-.44 8.83.49 14 4 4.26 1.57 8.63 2.77 13 4l9.12 2.62 4.33 1.23C421 1879 421 1879 424 1881l5.62 1.5c5.38 1.5 5.38 1.5 6.38 3.5-9.35-1.43-18.03-4.05-27-7l-3.28-1.06-10.91-3.56-3.58-1.17-3.4-1.12-3.04-1C382 1870 382 1870 377 1867z"/></svg>