<svg aria-hidden="true" xmlns="http://www.w3.org/2000/svg" width="1093" height="1124" viewBox="0 0 2186 2248"><path fill="#BBE13D" d="M963.44 85.92c48.6-1.02 97 4.28 144.56 14.08l3.12.64c13.45 2.8 26.62 6.44 39.77 10.42q4.7 1.42 9.42 2.82c20.92 6.26 41.78 13.1 61.7 22.12q3.83 1.64 7.67 3.32a556 556 0 0 1 46.71 23.24q3.6 1.99 7.23 3.94A438 438 0 0 1 1333 198c4.13 2.93 8.3 5.8 12.44 8.7 13.87 9.67 27.57 19.55 40.02 31a278 278 0 0 0 8.66 7.43 422 422 0 0 1 28.06 26.06c3.82 3.8 3.82 3.8 6.44 5.88 2.74 2.23 4.87 4.84 7.16 7.53 2.75 2.98 5.71 5.67 8.72 8.4 4.86 4.43 9.26 8.96 13.5 14q2.55 2.85 5.12 5.69l2.45 2.7q2.43 2.61 4.96 5.12a99 99 0 0 1 6.72 7.62l2.37 2.94L1482 334q2.1 2.56 4.18 5.13l2.23 2.72 6.02 7.3c10.72 12.99 10.72 12.99 14.32 17.67 2.63 3.39 5.34 6.66 8.12 9.93a194 194 0 0 1 11.86 15.93q3.41 4.98 6.95 9.89c14.14 19.74 27.98 39.59 40.37 60.48q4.23 7.1 8.57 14.14a1301 1301 0 0 1 66.44 122.8l2.31 4.88a1034 1034 0 0 1 18.75 42.26q4.46 10.64 9.1 21.2a872 872 0 0 1 19.66 48.65q2.13 5.74 4.3 11.46 4.94 13.28 9.74 26.6l3.24 8.9c10.56 29.14 20.36 58.52 30.12 87.92l4.47 13.36a1494 1494 0 0 1 9.06 27.72c2.88 9.23 5.94 18.39 9 27.56l1.58 4.73q3.57 10.7 7.17 21.4a766 766 0 0 1 9.25 28.8c15.92 54.03 15.92 54.03 24.2 70.57 2.75.9 2.75.9 6.24 1.5 12.9 2.26 24.73 6.46 36.68 11.75l4.02 1.77c28.02 12.44 52.98 28.85 76.05 48.98l4.31 3.69a151 151 0 0 1 20.27 22.1q3.22 4.28 6.6 8.4c25.61 31.94 40.46 73.32 41.5 114.13l.15 4.18c.4 13.93-.22 27.43-3.15 41.07l-.68 3.25a877 877 0 0 1-2.98 13.56c-1.97 8.07-4.92 15.44-8.38 22.99-1.64 3.63-1.64 3.63-3.46 8.63-3.28 7.5-7.73 14.16-12.18 21l-2.12 3.35a112 112 0 0 1-12.67 16.22 111 111 0 0 0-6.09 7.43c-16.29 20.45-47.33 42.84-73.12 48-.97 4.8-1.4 9.36-1.76 14.24l-.4 5.42-.4 5.66-.43 5.7q-.52 7-1 13.98l4.28-1a410 410 0 0 1 39.71-7l4.52-.57c12.43-1.2 25.06-.62 37.48.57l3.57.27c40 3.78 78.25 25.43 101.93 57.86q2.29 3.4 4.5 6.87l2.13 3.32c11.23 18.45 17.17 40.37 19.87 61.68l.55 3.44c1.33 8.79 1.63 17.44 1.63 26.3l.01 3.48c-.03 4.44-.1 8.46-1.19 12.78q-.23 4.04-.38 8.07c-1.02 19.68-5.04 39.17-10.52 58.07a638 638 0 0 0-3.3 12.12c-5.09 19.17-11.08 37.48-18.8 55.74l-2.2 5.38a645 645 0 0 1-13.93 30.69l-1.74 3.64a255 255 0 0 1-10.57 19.66c-3.4 5.73-6.5 11.64-9.64 17.52-9.13 16.86-19.33 33.09-31.44 47.98-2.54 3.2-4.87 6.5-7.17 9.88a214 214 0 0 1-19.05 23.7c-2.24 2.52-4.35 5.1-6.45 7.74-13.2 16.25-28.52 32.74-45.09 45.64-3.3 2.63-6.4 5.47-9.54 8.3-14.65 12.73-31.07 22.8-48.18 31.87l-3.58 2.04c-48.02 27.02-108 34.93-160.42 16.96a191 191 0 0 1-42-23l-2.66-1.81c-26.39-18.6-48.77-48.33-58.3-79.3-.92-2.82-.92-2.82-3.04-6.9-3.44-.3-3.44-.3-8 1l-6.5 1.39c-5.02 1.18-9.68 2.8-14.5 4.62-9.05 1.99-18.17 3.13-27.35 4.32-4.65.68-4.65.68-6.65 1.68h-9l-2 1c-5.97.82-11.76 1.1-17.77 1.03l-4.95-.04-10.16-.11c-15.68-.11-28.8 2.68-43.87 6.87l-9.87 2.7-4.84 1.32q-9.2 2.48-18.42 4.8l-5.49 1.37c-4.63 1.06-4.63 1.06-8.53 1.37-4.23.94-4.87 2.45-6.92 6.19l-2.04 3.59-2.14 3.9c-13.02 23.14-29.06 45.37-48 64l-3.22 3.7c-11.42 13-23.57 24.4-37.78 34.3l-2.7 1.95q-3.62 2.57-7.3 5.06l-3.38 2.33c-54.78 37.24-121.66 55.84-186.94 38.86-26.15-7.55-50.08-19.14-70.68-37.2l-3.85-3.28c-11.45-10.21-22.66-20.88-31.15-33.71q-2.02-2.76-4.07-5.5C967 2050.57 967 2050.57 967 2045l-8.63.44-4.85.25c-3.6.25-6.98.66-10.52 1.3-7.95 1.25-15.96 1.99-23.96 2.82-4.96.53-9.74 1.12-14.62 2.22-5.6 1.23-11.15 1.64-16.86 2.04-11.3.8-11.3.8-13.56 1.93-12.26 1.87-24.68 2.5-37.04 3.25-6.03.37-12.05.74-18.07 1.25-18.88 1.59-37.78 2.19-56.7 2.8l-3.55.12-6.65.22c-4.16.14-7.94.35-11.99 1.36-5.86.24-11.7.19-17.57.19h-5.17a416 416 0 0 1-36.52-1.75 174 174 0 0 0-14.24-.4c-7.87-.1-15.72-.82-23.57-1.41l-5.28-.4c-17.49-1.3-35.09-2.74-52.4-5.7-6.53-1.06-13.1-1.85-19.68-2.71a315 315 0 0 1-22.14-4.25 262 262 0 0 0-14.75-2.75c-13-2.25-25.8-5.61-38.62-8.81q-4-.99-8.02-1.95a405 405 0 0 1-30.1-8.74l-4.9-1.6a509 509 0 0 1-32.19-11.78c-4.4-1.75-8.8-3.31-13.29-4.81-24.4-8.5-47.13-21.51-69.56-34.13l-3.68-2.05A401 401 0 0 1 292 1949l-2.94-1.97a289 289 0 0 1-22.2-16.9 244 244 0 0 0-10.1-7.75c-6.35-4.7-12.02-10-17.76-15.38l-5.44-4.87c-5.89-5.41-11.58-11-17.25-16.63l-2.67-2.62A226 226 0 0 1 197 1864l-5.19-6c-7.07-8.32-13.43-17.15-19.8-26l-2.18-2.98c-4.62-6.46-8.73-13.22-12.83-20.02l-2.2-3.6c-10.04-16.6-19.75-33.3-26.8-51.4l-2.32-5c-16.75-36.66-25.78-76.5-32.68-116l-.58-3.21a233 233 0 0 1-2.49-19.91c-.83-9.66-.83-9.66-1.93-11.88q-.07-3.97 0-7.93c.04-6.77-.36-13.33-1-20.07-.25-24.97.06-50.18 3-75l.62-5.7c3.6-31.9 11-62.98 19.81-93.8a584 584 0 0 0 4.55-17.02c1.13-3.87 2.5-7.64 3.9-11.43q1.74-4.74 3.41-9.51c13.4-37.75 13.4-37.75 18.4-48.47a159 159 0 0 0 6.1-15.9C148 1290 148 1290 151 1285a880 880 0 0 0 3.48-9c7.72-20.34 7.72-20.34 12.14-29.68a206 206 0 0 0 6.5-17.13c2.33-6.46 4.9-12.81 7.44-19.2a251 251 0 0 0 9.34-27.23c1.12-3.84 2.5-7.48 3.97-11.2 3.92-10.2 6.52-20.72 9.26-31.27q2.01-7.6 4.12-15.16a466 466 0 0 0 8.9-37.91 984 984 0 0 0 6.95-39.6 459 459 0 0 1 1.91-11.1 288 288 0 0 0 2.5-17.58c.05-.55.05-.55.37-3.32l.77-6.6.91-7.83c2.15-18.67 3.56-37.4 4.97-56.14a793 793 0 0 1 1.97-22.8c.78-8.2 1.54-16.47 1.46-24.72.04-4.01.47-7.86.97-11.84l.56-4.55.51-4.14c.51-4.51.95-8.98 1.14-13.51.58-14.18 2.52-28.14 4.42-42.2.54-4.08.98-8.18 1.44-12.3q.94-7.36 1.93-14.74l.52-3.88c4.44-33.31 10.3-66.78 18.55-99.37l.8-3.18q3.03-11.93 6.2-23.82a2306 2306 0 0 1 4.18-15.87l.97-3.7a478 478 0 0 1 5.91-20.35c.87-2.85 1.65-5.74 2.42-8.63 1.67-6 3.68-11.8 5.83-17.63l1.21-3.35 2.4-6.55q1.32-3.57 2.61-7.15a834 834 0 0 1 20.8-50.95c1.93-4.43 3.76-8.91 5.6-13.38 3.05-7.28 6.47-14.2 10.28-21.12 1.94-3.6 3.6-7.31 5.25-11.06a440 440 0 0 1 33.8-59.07c2.1-3.22 3.94-6.36 5.74-9.75 2.6-4.85 5.63-9.07 9-13.44q1.92-2.86 3.81-5.75a288 288 0 0 1 10.77-15.06 824 824 0 0 0 18.35-25.25 226 226 0 0 1 14.26-17.7q3.51-4.06 6.81-8.3c7.17-9.06 15.26-17.38 23.55-25.43 1.95-2 3.82-4.1 5.66-6.21 6.05-6.87 12.57-13.26 19.04-19.73l4.1-4.15c6.55-6.55 13.08-12.9 20.4-18.6 2.25-1.82 2.25-1.82 6.37-5.94 4.05-4.05 8.32-7.42 12.88-10.88l3.21-2.8c4.1-3.47 8.36-6.58 12.72-9.7q8.61-6.14 17.07-12.5a500 500 0 0 1 37-25c1.6-1 3.21-1.97 4.87-3 26.21-15.93 53.57-30.73 82.13-42l6.75-3.18c14.2-6.67 28.53-12.71 43.71-16.75 3.54-1.07 3.54-1.07 6.27-2.5 4.82-2.31 9.92-3.5 15.08-4.82a674 674 0 0 0 20.72-5.65c11.63-3.43 22.78-6.05 34.87-7.4 4.6-.7 4.6-.7 8.78-2.12 15.17-4.97 31.6-6.56 47.38-8.64l5.88-.78a843 843 0 0 1 56.8-5.37c7.72-.5 15.45-.68 23.2-.87"/><path fill="#86AB1D" d="M823 105a149 149 0 0 1-18.62 10c-11.92 5.57-23.12 12.21-34.38 19l-2.9 1.74c-10.86 6.51-21.23 13.31-31.1 21.26l-6.62 5.06A688 688 0 0 0 690 195l-3.72 3.2a281 281 0 0 0-12.97 12.42l-2.22 2.24L665 219q-4.25 4.28-8.62 8.44a108 108 0 0 0-9.63 11.31 116 116 0 0 1-11.69 13.13c-6.92 6.72-12.44 14.3-18.06 22.12l-4.31 5.94-1.89 2.61a302 302 0 0 1-5.36 7.01c-7.33 9.46-13.83 19.48-20.44 29.44l-5.9 8.86-4.21 6.31q-4.3 6.48-8.68 12.9c-6.82 9.95-12.67 20.37-18.52 30.91a978 978 0 0 1-5.06 8.94A967 967 0 0 0 523 423l-2.01 3.86c-5.63 11-10.54 22.3-15.45 33.64l-3.42 7.68a534 534 0 0 0-13 31.51l-1.81 4.8c-6.68 17.91-13.07 36.01-17.55 54.61a113 113 0 0 1-2.64 8.31c-3.11 9.12-4.99 18.57-7.06 27.97l-.66 3a729 729 0 0 0-8.94 47.77q-.65 3.87-1.46 7.7a298 298 0 0 0-3 20.4l-.53 4.26a765 765 0 0 0-3.08 30.22 95 95 0 0 1-.88 7.14c-.91 5.57-1.18 11.2-1.57 16.82l-.28 3.68c-.39 5.56-.71 11.07-.66 16.65 0 4.98 0 4.98-.48 7.81-.6 3.67-.73 7.21-.83 10.93l-.13 4.75-.11 5.17-.13 5.47c-.44 20.77-.47 41.54-.45 62.31v16.44q-.04 42.7 1.04 85.38.09 5.07.07 10.13c.02 3.76.38 6.92 1.02 10.59q.13 4.36.13 8.72l.01 5.07-.02 5.27.02 5.29-.01 5.06v4.63C439 1010 439 1010 438 1015q-.02 4.44.06 8.88c.08 17.4-1.04 34.75-2.06 52.12l-.24 4.23c-.83 14.11-2 28.09-3.98 42.1q-.92 6.74-1.7 13.52a1633 1633 0 0 1-3.89 30.34l-.8 5.86a1054 1054 0 0 1-5.63 36.25 610 610 0 0 0-4.33 31.01 668 668 0 0 1-2.95 21.81 410 410 0 0 0-3.1 32.44l-.37 5.42a770 770 0 0 0 3.61 143.83l1.06 9.16c4.68 39.52 12.88 78.1 23.96 116.31q1.22 4.23 2.38 8.47c2.72 9.98 6.32 19.58 9.98 29.25l1.95 5.21c5.88 15.63 11.97 31.1 19.6 45.97q3 5.9 5.9 11.86c6.28 12.78 12.62 25.29 20.26 37.32 1.96 3.12 3.72 6.25 5.41 9.52 2.84 5.05 6.04 9.37 9.58 13.94 3.21 4.43 5.76 9.16 8.41 13.94 2.57 4.4 5.73 8.25 8.89 12.24q2.15 3.36 4.25 6.75a133 133 0 0 0 13.27 17.31A93 93 0 0 1 554 1789q2.43 3 4.94 5.94c2.77 3.27 5.35 6.48 7.81 10 2.25 3.06 2.25 3.06 5.06 5.37a44 44 0 0 1 6.94 7.38c4.33 5.56 9.2 10.41 14.25 15.31 3.24 3.19 6.32 6.45 9.31 9.88 3.96 4.41 8.16 8.28 12.69 12.12l5.5 5.06A169 169 0 0 0 634 1871l6.47 5.8c8.25 7.16 17.21 13.45 26.12 19.75q4.84 3.5 9.6 7.14A212 212 0 0 0 693 1915l2.95 1.86c9.15 5.74 18.58 10.94 28.05 16.14l5.34 2.99A413 413 0 0 0 766 1954l9 4.06a690 690 0 0 0 29 11.94l5.44 2.15c16.89 6.59 34.16 11.77 51.56 16.85l3.46 1.02a549 549 0 0 0 46.1 11.27 682 682 0 0 1 13.45 2.9l8.75 1.93c5.19.87 9.99 1.04 15.24.88a97 97 0 0 0-2.81-17.56A253 253 0 0 1 938 1934l-.09-3.91q-.04-6.04.09-12.09l.04-2.86c.39-25.57 3.91-50.3 9.96-75.14l1.24-5.3c9.13-35.6 23.45-69.91 41.76-101.7l2.12-3.76c4.92-8.7 10.23-17 15.88-25.24l3.31-4.88c12.07-17.05 25.48-32.83 39.69-48.12l3.57-3.92A213 213 0 0 1 1080 1624l3.43-2.77a347 347 0 0 1 82.97-49.14 421 421 0 0 0 6.15-2.64c53.77-22.37 121.09-22.85 173.45 2.55a144 144 0 0 1 29 20l5.81 4.69A114 114 0 0 1 1400 1617l2.09 2.64c10.86 13.96 18.44 28.97 24.91 45.36l1.91 4.61A167 167 0 0 1 1438 1700l.99 4.5c4.83 23.29 8.17 47.71 7.01 71.5l-.15 3.5c-1.5 34.01-4.78 68.59-13.85 101.5l-1.34 4.91A667 667 0 0 1 1419 1923l-1.86 5.48c-2.67 7.79-5.38 15.19-9.14 22.52q-1.26 2.89-2.44 5.81c-6.06 14.69-12.94 29-21.71 42.28-2.27 3.57-4.32 7.24-6.41 10.91a273 273 0 0 1-43.44 56l-3.21 3.69c-11.43 13-23.57 24.4-37.79 34.31l-2.69 1.93a366 366 0 0 1-7.31 5.07l-3.38 2.33c-54.77 37.24-121.65 55.83-186.93 38.86-26.16-7.55-50.09-19.14-70.69-37.19l-3.84-3.3c-11.46-10.2-22.66-20.87-31.16-33.7l-4.06-5.5C967 2050.56 967 2050.56 967 2045l-8.62.44-4.86.24c-3.6.26-6.98.67-10.52 1.32-7.95 1.24-15.96 1.98-23.95 2.81a126 126 0 0 0-14.62 2.22c-5.61 1.23-11.15 1.63-16.87 2.03-11.31.81-11.31.81-13.56 1.94-12.26 1.87-24.68 2.5-37.04 3.25-6.03.37-12.05.74-18.06 1.25-18.88 1.58-37.79 2.19-56.72 2.8l-10.18.33c-4.17.14-7.94.36-12 1.37-5.85.24-11.71.19-17.56.19h-5.17a416 416 0 0 1-36.53-1.75 165 165 0 0 0-14.24-.39c-7.87-.11-15.72-.83-23.56-1.43l-5.28-.38c-17.5-1.3-35.1-2.75-52.41-5.71-6.53-1.07-13.11-1.85-19.67-2.71a308 308 0 0 1-22.14-4.26q-7.34-1.57-14.75-2.75c-13.02-2.24-25.81-5.61-38.62-8.8q-4.01-1-8.02-1.96a393 393 0 0 1-30.11-8.74l-4.91-1.59a509 509 0 0 1-32.17-11.78 251 251 0 0 0-13.3-4.82c-24.4-8.48-47.13-21.5-69.56-34.12l-3.68-2.05A405 405 0 0 1 292 1949l-2.93-1.97c-7.76-5.24-15-10.94-22.21-16.9a244 244 0 0 0-10.11-7.75c-6.34-4.7-12.01-9.99-17.75-15.38l-5.44-4.88a614 614 0 0 1-17.25-16.62l-2.66-2.62A226 226 0 0 1 197 1864a744 744 0 0 0-5.19-6c-7.07-8.32-13.43-17.15-19.81-26l-2.16-2.98A306 306 0 0 1 157 1809l-2.19-3.6c-10.04-16.59-19.76-33.29-26.81-51.4l-2.31-5c-16.75-36.66-25.79-76.49-32.69-116l-.57-3.21a227 227 0 0 1-2.49-19.91c-.83-9.66-.83-9.66-1.94-11.88q-.07-3.97 0-7.94c.05-6.76-.36-13.32-1-20.06-.24-24.97.06-50.18 3-75l.62-5.7c3.6-31.9 10.99-62.98 19.82-93.8q2.4-8.47 4.54-17.02c1.14-3.88 2.5-7.65 3.9-11.43q1.73-4.75 3.42-9.51c13.38-37.75 13.38-37.75 18.39-48.48a162 162 0 0 0 6.1-15.9C148 1290 148 1290 151 1285q1.78-4.49 3.48-9c7.72-20.34 7.72-20.34 12.14-29.69 2.52-5.62 4.51-11.3 6.51-17.12 2.33-6.46 4.88-12.82 7.43-19.19a254 254 0 0 0 9.34-27.24 124 124 0 0 1 3.98-11.2c3.92-10.19 6.51-20.72 9.26-31.28q2.01-7.59 4.11-15.16a459 459 0 0 0 8.9-37.91 998 998 0 0 0 6.96-39.58q.87-5.57 1.91-11.1c1.04-5.85 1.8-11.7 2.48-17.59l.39-3.32.76-6.59.92-7.85c2.15-18.66 3.55-37.4 4.97-56.13.57-7.61 1.16-15.21 1.96-22.8.78-8.2 1.54-16.47 1.47-24.72a100 100 0 0 1 .97-11.84l.55-4.56.51-4.13c.51-4.51.96-8.98 1.14-13.52.58-14.18 2.53-28.13 4.43-42.18.53-4.09.98-8.2 1.43-12.3q.94-7.37 1.94-14.75l.51-3.88c4.44-33.31 10.3-66.78 18.55-99.37l.8-3.18q3.04-11.93 6.2-23.82l2.08-7.91 2.11-7.97.97-3.68a493 493 0 0 1 5.9-20.36c.87-2.86 1.65-5.74 2.42-8.63 1.67-6 3.69-11.79 5.83-17.64l1.22-3.34 2.4-6.55 2.61-7.15a819 819 0 0 1 20.79-50.95c1.94-4.43 3.77-8.91 5.61-13.38 3.05-7.29 6.47-14.2 10.27-21.12a160 160 0 0 0 5.26-11.06 441 441 0 0 1 33.78-59.07c2.12-3.22 3.95-6.36 5.75-9.75 2.59-4.86 5.64-9.07 9-13.44q1.92-2.87 3.81-5.75a280 280 0 0 1 10.78-15.06 824 824 0 0 0 18.35-25.25 220 220 0 0 1 14.26-17.7c2.35-2.72 4.59-5.47 6.8-8.3 7.17-9.07 15.27-17.38 23.55-25.43 1.96-2 3.83-4.1 5.66-6.21 6.06-6.87 12.57-13.26 19.04-19.74l4.11-4.14c6.54-6.56 13.07-12.9 20.38-18.6 2.26-1.82 2.26-1.82 6.38-5.94 4.05-4.05 8.33-7.42 12.88-10.88l3.22-2.8c4.1-3.47 8.35-6.58 12.72-9.7A867 867 0 0 0 570 214a500 500 0 0 1 37-25l4.87-3c26.21-15.93 53.58-30.73 82.13-42q3.38-1.58 6.75-3.19c14.2-6.67 28.54-12.7 43.72-16.74 3.53-1.07 3.53-1.07 6.26-2.5 4.82-2.31 9.92-3.49 15.08-4.82l7.01-1.84 3.6-.95c4.56-1.22 9.1-2.54 13.63-3.85 24.79-7.15 24.79-7.15 32.95-5.11m1143 1380 3.57.27c40 3.78 78.26 25.43 101.93 57.85a338 338 0 0 1 4.5 6.88l2.14 3.32c11.22 18.45 17.17 40.36 19.86 61.68l.56 3.44c1.33 8.79 1.62 17.44 1.63 26.31v3.47c-.03 4.44-.11 8.46-1.19 12.78q-.22 4.03-.38 8.06c-1.02 19.69-5.03 39.18-10.52 58.08a571 571 0 0 0-3.29 12.12c-5.1 19.17-11.09 37.48-18.81 55.74l-2.2 5.38a650 650 0 0 1-13.92 30.68l-1.74 3.64a251 251 0 0 1-10.58 19.66c-3.4 5.73-6.5 11.64-9.63 17.52-9.14 16.86-19.33 33.1-31.44 47.99-2.55 3.2-4.87 6.5-7.18 9.88a214 214 0 0 1-19.04 23.7 199 199 0 0 0-6.46 7.74c-13.2 16.25-28.51 32.74-45.08 45.63-3.31 2.64-6.4 5.48-9.54 8.3-14.66 12.74-31.08 22.81-48.19 31.88l-3.57 2.04c-48.03 27.02-108.01 34.93-160.43 16.96a192 192 0 0 1-42-23l-2.66-1.81c-26.38-18.59-48.77-48.34-58.29-79.29-.93-2.84-.93-2.84-3.05-6.9-3.44-.31-3.44-.31-8 1l-6.5 1.38c-5.02 1.18-9.68 2.8-14.5 4.62-9.05 1.99-18.16 3.13-27.34 4.32-4.66.68-4.66.68-6.66 1.68h-9l-2 1c-9.33 1.27-18.6 1.18-28 1.19l-5.2.03-4.92.01-4.51.01-3.37-.24-1-2 2.5-.9c28.61-10.31 28.61-10.31 39.43-15.25q4.82-2.18 9.7-4.23c15.42-6.53 29.95-14.13 44.37-22.62l5.05-2.94c10.68-6.39 10.68-6.39 12.95-12.06.27-2.92.27-2.92.31-6.17l.07-3.66.06-3.92c1.07-41.7 11.29-81.55 26.56-120.25l1.45-3.84c7.11-18.6 15.99-36.67 25.43-54.2a215 215 0 0 0 4.93-9.84c4.21-8.51 9.5-16.45 14.55-24.48 2.43-3.91 4.78-7.87 7.14-11.83 5.68-9.3 12-18.06 18.5-26.81l3.11-4.23a376 376 0 0 1 17.37-21.82 250 250 0 0 0 6.52-8.01c8.03-10.07 17.11-19.14 26.19-28.25l2.84-2.86A280 280 0 0 1 1755 1565l3.81-3.38c10.63-9.19 21.73-17.49 33.19-25.62l4.15-3c8.92-6.32 17.99-11.32 27.85-16l7.81-4a299 299 0 0 1 38.21-15.89c2.98-1.11 2.98-1.11 5.78-2.62 4.12-1.92 8.11-2.65 12.58-3.49l5.37-1.02 5.25-.98 4.34-.89a153 153 0 0 1 23.65-2.9c13.06-.91 25.75-1.48 39.01-.21"/><path fill="#FAF9F9" d="m1043 732 3.2 2.22a149 149 0 0 1 15.46 12.63q3.15 2.86 6.4 5.59c3.84 3.47 7.24 7.08 10.65 10.97a269 269 0 0 0 4.54 5c5.05 5.4 9.34 11.06 13.46 17.19q2.4 3.55 4.89 7.05l2.52 3.54 2.33 3.23L1108 802l-1 2-2.27-2.53c-26.45-29.08-55.32-44.02-94.98-42.95-30.15 1.46-56.11 16.27-77.75 36.48l-2.47 2.27c-7.19 6.86-12.9 14.56-18.53 22.73l-2.12 3.01C882.07 863.46 878.17 917.3 891 963c6.05 19.31 14.75 36.65 28 52l2.34 2.77A198 198 0 0 0 928 1025l2.11 2.19c24.17 23.33 59.63 34.78 92.83 31.52 39.06-4.58 74.64-24.21 96.85-57.17 5.35-8.57 10.37-17.16 14.15-26.54l2.06-5h2c0 5.4-.54 8.38-2.19 13.38-2.79 8.54-2.79 8.54-3.9 12.34-9.74 33.06-25.86 65.43-48.91 91.28l-2.43 2.76a468 468 0 0 1-8.57 9.24l-3.55 3.79c-10.02 10.38-20.77 18.81-32.45 27.21l-4.16 3.17c-53.27 39.23-125.91 47.8-189.04 33.34-30.21-7.85-59.84-21.19-83.8-41.51l-3.43-2.86A706 706 0 0 1 745 1113l-3.35-2.94c-13.24-11.87-23.71-25.37-33.65-40.06l-2.44-3.59c-31.9-48.3-42.27-108.68-32.56-165.41l1-5.86c10.65-58.03 43.74-111.62 90-148.14l4.5-3.81c77.21-61.24 193.6-69.02 274.5-11.19m465-116 5.11 3a174 174 0 0 1 35.89 28l3.94 3.44c10.44 9.15 18.79 19.48 27.06 30.56q3.98 5.02 8 10l-2 2q-2.26-2.43-4.5-4.88l-2.53-2.74C1577 683 1577 683 1577 681l-4-2-3.12-2.94c-22.18-19.8-51.77-27.86-80.88-24-33.96 5.76-62.26 26.53-81 54.94l-2.15 3.25c-17.26 27.03-24.64 58.52-24.29 90.37l-.02 5.45c.09 19.25 3.4 36.71 9.46 54.93l1.37 4.18c7.07 20.22 18.86 38.39 33.63 53.82l2.11 2.3c21.7 22.93 53.93 33.31 84.89 31.7 25.21-2.47 47.66-11.61 67-28l3.12-2.62c23.19-20.33 34.8-48 41.88-77.38l3 1c-.04 2.7-.04 2.7-.62 6.25l-.65 3.88a252 252 0 0 1-2.9 13.3q-.89 3.87-1.63 7.77c-8.72 45.38-31.48 86.41-63.2 119.8l-3.79 4.02c-16.82 17.39-36.01 31.01-57.52 42.04l-3.63 1.87c-21.86 11.15-43.76 17.51-67.93 21.53q-4.43.78-8.82 1.69c-8.06 1.33-16.11.94-24.25.66l-4.99-.16c-45-1.69-87.92-16.62-124.07-43.65l-3.74-2.77c-53.27-40.57-87.01-105.57-91.26-172.23-1.67-40.72 4.48-79.55 21-117l2.02-4.62c10.23-22.48 24.25-43.78 41.35-61.63q3.13-3.32 6.07-6.81c13.18-14.58 28.97-26.52 45.56-36.94l4.56-2.87C1354.69 581 1441.82 576.5 1508 616"/><path fill="#0F0E0E" d="M1092.56 787.81q2.24 2.09 4.44 4.2l3.68 3.42c8.67 9.32 14.33 20.43 20.32 31.57l1.91 3.43c14.47 27.03 21.32 60.2 21.21 90.63l.01 3.35c-.04 36.85-13.67 69.21-39.13 95.6l-2.62 2.83c-24.33 25.71-61.22 38.4-96.18 37.48-38.33-2.95-70.42-21.77-94.07-51.87-28.75-40.86-34.77-91.12-23.85-139.1 12.14-45.26 40.4-80.9 82.11-102.08 42.46-19.69 87.98-9.73 122.17 20.54"/><path fill="#87AC1D" d="m732 1159 3.26.02c8.02.27 15.64 1.91 23.43 3.73l3.17.73c7.19 1.76 13.48 4.29 20.14 7.52l3.75 1.77c25.64 12.64 46.85 31.73 60.25 57.23l1.91 3.59c18.93 36.51 18.57 79.42 3.47 117.35A140 140 0 0 1 828 1387l-2.76 3.12a146.8 146.8 0 0 1-109.55 48.32l-4.65-.03c-11.09-.16-21.4-1.13-32.04-4.41l-4.31-1.29c-31.11-10.11-59.73-30.84-75.69-59.71l-2.31-4.04c-11.65-20.97-15.86-42.96-15.88-66.77l-.03-3.58c-.07-40.5 19.4-77.89 49.22-104.61 3.89-3.17 7.89-6.12 12-9l2.48-1.86c25.05-18.47 56.99-24.74 87.52-24.14"/><path fill="#86AB1D" d="m1668 1005 3.6.74c27.93 6.32 53.22 19.72 71.4 42.26l1.95 2.32c25.52 30.91 34.06 71.09 26.96 110.27-4.46 21.7-11.28 40.05-23.91 58.41l-2.07 3.16c-20.1 28.97-50.19 47.14-83.93 55.84l-3.73 1.03c-32.65 7.69-70.46.58-98.27-18.03l-3.6-2.41c-24.55-17.01-39.7-38.35-49.4-66.59l-1.31-3.66c-12.8-37.94-2.9-80.7 16.31-114.34l1.81-3.18c3.92-6.49 8.67-12.16 13.64-17.87q2.36-2.72 4.56-5.56a47 47 0 0 1 7.11-6.7l2.95-2.35 2.93-2.34 2.59-2.15c5.5-4.53 11.19-8.37 17.41-11.85l3.23-1.9c26.55-15.07 59.68-21.77 89.77-15.1"/><path fill="#0F0E0E" d="m1571 676 3.19 2.38c4.43 4.13 8.07 8.86 11.81 13.62l2.55 3.18c25.44 32.21 37.03 75.43 39.45 115.82l.26 3.88c1.37 40.34-15.6 81.5-45.13 108.77-26.98 23.25-60.93 34.56-96.44 29.35-39.09-7.75-66.5-33.28-86-66.88-4.89-9.06-8.48-18.35-11.69-28.12l-1.43-4.31c-5.47-17.39-7.14-34.65-7.07-52.81l.02-5.72c.19-14.37 1.49-27.34 5.48-41.16l.88-3.08c7.35-25.26 19.71-47.05 38.12-65.92l3.25-3.56c42.13-38.63 98.34-40.94 142.75-5.44"/><path fill="#86AB1D" d="M1814 1047c43.76 2.08 90.13 35.18 122 63l4.31 3.69a151 151 0 0 1 20.28 22.11 293 293 0 0 0 6.6 8.39c25.61 31.93 40.46 73.32 41.5 114.12l.14 4.19c.4 13.92-.21 27.42-3.14 41.06l-.68 3.26-2.01 9.18-.97 4.38c-1.98 8.07-4.93 15.43-8.39 22.98-1.64 3.64-1.64 3.64-3.45 8.64-3.28 7.49-7.74 14.16-12.19 21l-2.11 3.34c-3.8 5.9-7.89 11.11-12.68 16.23a111 111 0 0 0-6.09 7.43c-16.87 21.18-43.36 36.94-68.12 47h-5l.04-3.8.02-5.08.04-4.99c-.1-5.13-.1-5.13-.61-9.63-.7-7.86-.5-15.68-.43-23.56.1-19.1.2-38.66-2.6-57.6-.46-3.34-.46-3.34-.34-7.28-.1-4.34-.61-7.89-1.48-12.11-2.19-11.39-3.37-22.88-4.66-34.4a342 342 0 0 0-5.04-31 404 404 0 0 1-2.71-14.69c-4.26-25.07-10.2-49.66-17.16-74.1l-3.33-11.85a3336 3336 0 0 0-12.19-42.63l-2.88-9.9a616 616 0 0 0-8.19-25.86 502 502 0 0 1-5.4-17.85q-1.02-3.48-2.22-6.9c-.86-2.77-.86-2.77-.86-6.77"/><path fill="#0F0E0E" d="M1348 1106c7.7 6.53 13.62 15.67 14 26l.38 4.62c-.4 31.86-18.84 64.92-40.38 87.38l-2.6 2.82c-21.49 22.61-50.92 37.79-81.4 43.74l-3.32.66c-44.9 8.64-91.56-.65-127.73-29.71-18.15-15.45-34.77-35.83-35.33-60.57.32-12.87 4.3-22.72 14.03-31.27 11.79-8.92 23.7-12.8 38.41-9.48 14.98 4.17 23.45 13.83 30.94 26.81 10.67 13.39 25.56 21.05 42.66 22.47 22.58.12 45.29-3.94 61.09-21.54 10.31-12.55 15.35-24.81 19.78-40.33 1.81-5.68 4.02-9.76 7.47-14.6l2.06-3.12c17.43-17.06 40.8-18.45 59.94-3.88"/></svg>